<svg width="1673" height="1114" viewBox="0 0 1673 1114" fill="none" xmlns="http://www.w3.org/2000/svg">
<rect width="1673" height="1114" fill="#E5E5E5"/>
<rect width="1673" height="1114" fill="#003245"/>
<rect x="94.7579" y="340.758" width="362.484" height="163.484" fill="black" stroke="white" stroke-width="3.51579"/>
<path d="M211.607 424.395H200.069V436.537H196.443V409.043H213.476V412.027H200.069V421.431H211.607V424.395ZM226.657 419.24C226.128 419.152 225.556 419.108 224.939 419.108C222.647 419.108 221.093 420.084 220.274 422.035V436.537H216.781V416.105H220.18L220.237 418.466C221.382 416.64 223.006 415.728 225.109 415.728C225.788 415.728 226.305 415.816 226.657 415.992V419.24ZM228.583 426.133C228.583 424.131 228.973 422.331 229.754 420.732C230.547 419.133 231.642 417.899 233.04 417.031C234.45 416.162 236.055 415.728 237.855 415.728C240.637 415.728 242.884 416.691 244.597 418.617C246.321 420.543 247.184 423.105 247.184 426.303V426.548C247.184 428.537 246.8 430.325 246.032 431.911C245.276 433.485 244.187 434.712 242.765 435.593C241.355 436.475 239.731 436.915 237.893 436.915C235.123 436.915 232.876 435.952 231.151 434.026C229.439 432.1 228.583 429.551 228.583 426.378V426.133ZM232.096 426.548C232.096 428.814 232.618 430.633 233.663 432.005C234.72 433.378 236.13 434.064 237.893 434.064C239.668 434.064 241.078 433.371 242.123 431.987C243.168 430.589 243.69 428.638 243.69 426.133C243.69 423.892 243.155 422.079 242.085 420.694C241.027 419.297 239.618 418.598 237.855 418.598C236.13 418.598 234.739 419.284 233.682 420.656C232.624 422.029 232.096 423.992 232.096 426.548ZM254.869 416.105L254.982 418.674C256.544 416.71 258.583 415.728 261.101 415.728C265.419 415.728 267.597 418.164 267.635 423.036V436.537H264.141V423.017C264.128 421.544 263.789 420.455 263.121 419.75C262.467 419.045 261.441 418.692 260.043 418.692C258.91 418.692 257.916 418.995 257.06 419.599C256.204 420.203 255.536 420.996 255.058 421.978V436.537H251.565V416.105H254.869ZM277.643 411.158V416.105H281.457V418.806H277.643V431.477C277.643 432.295 277.813 432.912 278.153 433.327C278.493 433.73 279.072 433.932 279.89 433.932C280.293 433.932 280.847 433.856 281.552 433.705V436.537C280.633 436.789 279.739 436.915 278.87 436.915C277.309 436.915 276.132 436.443 275.339 435.499C274.546 434.555 274.149 433.214 274.149 431.477V418.806H270.429V416.105H274.149V411.158H277.643ZM292.825 426.284H283.61V423.432H292.825V426.284ZM312.332 423.829H300.417V433.573H314.258V436.537H296.791V409.043H314.069V412.027H300.417V420.864H312.332V423.829ZM321.528 416.105L321.642 418.674C323.203 416.71 325.242 415.728 327.76 415.728C332.078 415.728 334.256 418.164 334.294 423.036V436.537H330.8V423.017C330.788 421.544 330.448 420.455 329.781 419.75C329.126 419.045 328.1 418.692 326.703 418.692C325.57 418.692 324.575 418.995 323.719 419.599C322.863 420.203 322.196 420.996 321.717 421.978V436.537H318.224V416.105H321.528ZM338.713 426.151C338.713 423.017 339.455 420.499 340.941 418.598C342.426 416.684 344.371 415.728 346.776 415.728C349.168 415.728 351.062 416.546 352.46 418.183V407.532H355.953V436.537H352.743L352.573 434.347C351.176 436.059 349.231 436.915 346.738 436.915C344.371 436.915 342.439 435.946 340.941 434.007C339.455 432.068 338.713 429.538 338.713 426.416V426.151ZM342.206 426.548C342.206 428.864 342.684 430.677 343.641 431.987C344.598 433.296 345.92 433.95 347.607 433.95C349.822 433.95 351.44 432.956 352.46 430.967V421.582C351.415 419.656 349.81 418.692 347.644 418.692C345.932 418.692 344.598 419.353 343.641 420.675C342.684 421.997 342.206 423.955 342.206 426.548Z" fill="white"/>
<path d="M434.39 353.063L444.937 363.61M434.39 363.61L444.937 353.063" stroke="white" stroke-width="3.51579"/>
<rect x="105.305" y="324.937" width="104.221" height="39.0632" fill="black"/>
<path d="M137.145 346.478H134.683V351.968H131.593V336.971H137.166C138.937 336.971 140.304 337.366 141.265 338.156C142.226 338.946 142.707 340.061 142.707 341.503C142.707 342.527 142.484 343.381 142.038 344.068C141.598 344.748 140.929 345.29 140.029 345.696L143.274 351.824V351.968H139.957L137.145 346.478ZM134.683 343.975H137.176C137.952 343.975 138.553 343.78 138.978 343.388C139.404 342.99 139.617 342.444 139.617 341.751C139.617 341.043 139.415 340.487 139.009 340.082C138.611 339.677 137.997 339.474 137.166 339.474H134.683V343.975ZM150 352.174C148.365 352.174 147.033 351.673 146.003 350.671C144.98 349.668 144.468 348.332 144.468 346.664V346.375C144.468 345.256 144.685 344.257 145.117 343.378C145.55 342.492 146.161 341.812 146.951 341.339C147.747 340.858 148.654 340.618 149.67 340.618C151.194 340.618 152.393 341.098 153.265 342.06C154.144 343.021 154.583 344.384 154.583 346.149V347.364H147.486C147.583 348.092 147.871 348.676 148.352 349.115C148.839 349.555 149.454 349.774 150.195 349.774C151.342 349.774 152.238 349.359 152.884 348.528L154.346 350.166C153.9 350.798 153.296 351.292 152.533 351.649C151.771 351.999 150.927 352.174 150 352.174ZM149.66 343.028C149.069 343.028 148.589 343.227 148.218 343.625C147.854 344.024 147.62 344.593 147.517 345.335H151.658V345.098C151.644 344.439 151.466 343.931 151.122 343.574C150.779 343.21 150.291 343.028 149.66 343.028ZM162.741 351.968C162.604 351.701 162.504 351.368 162.442 350.969C161.721 351.773 160.784 352.174 159.63 352.174C158.538 352.174 157.632 351.859 156.911 351.227C156.197 350.595 155.84 349.798 155.84 348.837C155.84 347.656 156.276 346.75 157.148 346.118C158.027 345.486 159.294 345.167 160.949 345.16H162.319V344.521C162.319 344.006 162.185 343.594 161.917 343.285C161.656 342.976 161.241 342.822 160.671 342.822C160.169 342.822 159.775 342.942 159.486 343.182C159.205 343.423 159.064 343.752 159.064 344.171H156.087C156.087 343.526 156.286 342.928 156.684 342.379C157.083 341.83 157.646 341.4 158.374 341.091C159.102 340.776 159.919 340.618 160.825 340.618C162.198 340.618 163.287 340.964 164.09 341.658C164.901 342.345 165.306 343.313 165.306 344.563V349.393C165.313 350.451 165.46 351.251 165.749 351.793V351.968H162.741ZM160.279 349.898C160.719 349.898 161.124 349.802 161.495 349.61C161.865 349.411 162.14 349.146 162.319 348.817V346.901H161.206C159.716 346.901 158.923 347.416 158.827 348.446L158.817 348.621C158.817 348.992 158.947 349.297 159.208 349.538C159.469 349.778 159.826 349.898 160.279 349.898ZM172.227 349.774C172.777 349.774 173.223 349.623 173.566 349.321C173.91 349.019 174.088 348.617 174.102 348.116H176.893C176.887 348.871 176.681 349.565 176.275 350.197C175.87 350.822 175.314 351.309 174.607 351.659C173.906 352.003 173.13 352.174 172.279 352.174C170.686 352.174 169.429 351.67 168.509 350.66C167.589 349.644 167.129 348.243 167.129 346.458V346.262C167.129 344.545 167.585 343.175 168.499 342.152C169.412 341.129 170.665 340.618 172.258 340.618C173.652 340.618 174.768 341.016 175.606 341.812C176.45 342.602 176.88 343.656 176.893 344.975H174.102C174.088 344.398 173.91 343.931 173.566 343.574C173.223 343.21 172.77 343.028 172.207 343.028C171.513 343.028 170.988 343.282 170.631 343.79C170.281 344.291 170.106 345.108 170.106 346.241V346.55C170.106 347.697 170.281 348.521 170.631 349.023C170.981 349.524 171.513 349.774 172.227 349.774ZM182.157 338.084V340.824H184.062V343.007H182.157V348.569C182.157 348.981 182.236 349.277 182.394 349.455C182.552 349.634 182.854 349.723 183.3 349.723C183.63 349.723 183.922 349.699 184.176 349.651V351.907C183.592 352.085 182.991 352.174 182.373 352.174C180.286 352.174 179.221 351.12 179.18 349.012V343.007H177.553V340.824H179.18V338.084H182.157Z" fill="white"/>
<rect x="105.305" y="324.937" width="104.221" height="39.0632" stroke="white" stroke-width="3.51579"/>
<rect x="1214.76" y="335.758" width="362.484" height="163.484" fill="black" stroke="white" stroke-width="3.51579"/>
<path d="M1374.23 424.362H1362.71L1360.12 431.537H1356.38L1366.88 404.043H1370.05L1380.57 431.537H1376.85L1374.23 424.362ZM1363.8 421.378H1373.15L1368.47 408.518L1363.8 421.378ZM1396.11 429.517C1394.75 431.116 1392.76 431.915 1390.13 431.915C1387.95 431.915 1386.29 431.286 1385.14 430.027C1384.01 428.755 1383.44 426.88 1383.42 424.399V411.105H1386.92V424.305C1386.92 427.402 1388.18 428.95 1390.69 428.95C1393.36 428.95 1395.14 427.956 1396.02 425.967V411.105H1399.51V431.537H1396.19L1396.11 429.517ZM1409.58 406.158V411.105H1413.39V413.806H1409.58V426.477C1409.58 427.295 1409.75 427.912 1410.09 428.327C1410.43 428.73 1411.01 428.932 1411.82 428.932C1412.23 428.932 1412.78 428.856 1413.49 428.705V431.537C1412.57 431.789 1411.67 431.915 1410.8 431.915C1409.24 431.915 1408.07 431.443 1407.27 430.499C1406.48 429.555 1406.08 428.214 1406.08 426.477V413.806H1402.36V411.105H1406.08V406.158H1409.58ZM1420.98 413.579C1422.53 411.678 1424.55 410.728 1427.03 410.728C1431.34 410.728 1433.52 413.164 1433.56 418.036V431.537H1430.07V418.017C1430.05 416.544 1429.71 415.455 1429.05 414.75C1428.39 414.045 1427.37 413.692 1425.97 413.692C1424.84 413.692 1423.84 413.995 1422.98 414.599C1422.13 415.203 1421.46 415.996 1420.98 416.978V431.537H1417.49V402.532H1420.98V413.579Z" fill="white"/>
<path d="M1554.39 348.063L1564.94 358.61M1554.39 358.61L1564.94 348.063" stroke="white" stroke-width="3.51579"/>
<rect x="1225.31" y="319.937" width="102.221" height="39.0632" fill="black"/>
<path d="M1255.45 331.971L1259.31 342.848L1263.14 331.971H1267.2V346.968H1264.1V342.869L1264.41 335.793L1260.36 346.968H1258.24L1254.2 335.803L1254.51 342.869V346.968H1251.42V331.971H1255.45ZM1269.24 341.293C1269.24 340.187 1269.45 339.202 1269.88 338.337C1270.3 337.472 1270.91 336.802 1271.71 336.328C1272.51 335.855 1273.44 335.618 1274.5 335.618C1276 335.618 1277.23 336.078 1278.18 336.998C1279.13 337.918 1279.66 339.168 1279.77 340.747L1279.79 341.509C1279.79 343.219 1279.32 344.592 1278.36 345.629C1277.41 346.659 1276.13 347.174 1274.52 347.174C1272.91 347.174 1271.63 346.659 1270.67 345.629C1269.71 344.599 1269.24 343.199 1269.24 341.427V341.293ZM1272.21 341.509C1272.21 342.567 1272.41 343.377 1272.81 343.94C1273.21 344.496 1273.78 344.774 1274.52 344.774C1275.24 344.774 1275.8 344.5 1276.21 343.95C1276.61 343.394 1276.82 342.508 1276.82 341.293C1276.82 340.256 1276.61 339.453 1276.21 338.883C1275.8 338.313 1275.23 338.028 1274.5 338.028C1273.77 338.028 1273.21 338.313 1272.81 338.883C1272.41 339.446 1272.21 340.321 1272.21 341.509ZM1286.26 344.774C1286.81 344.774 1287.26 344.623 1287.6 344.321C1287.95 344.019 1288.12 343.617 1288.14 343.116H1290.93C1290.92 343.871 1290.72 344.565 1290.31 345.197C1289.91 345.822 1289.35 346.309 1288.64 346.659C1287.94 347.003 1287.17 347.174 1286.31 347.174C1284.72 347.174 1283.46 346.67 1282.54 345.66C1281.62 344.644 1281.16 343.243 1281.16 341.458V341.262C1281.16 339.545 1281.62 338.175 1282.53 337.152C1283.45 336.129 1284.7 335.618 1286.29 335.618C1287.69 335.618 1288.8 336.016 1289.64 336.812C1290.49 337.602 1290.91 338.656 1290.93 339.975H1288.14C1288.12 339.398 1287.95 338.931 1287.6 338.574C1287.26 338.21 1286.81 338.028 1286.24 338.028C1285.55 338.028 1285.02 338.282 1284.67 338.79C1284.32 339.291 1284.14 340.108 1284.14 341.241V341.55C1284.14 342.697 1284.32 343.521 1284.67 344.023C1285.02 344.524 1285.55 344.774 1286.26 344.774ZM1296.68 342.498L1295.6 343.569V346.968H1292.63V331.147H1295.6V339.913L1296.18 339.171L1299.03 335.824H1302.61L1298.58 340.469L1302.96 346.968H1299.54L1296.68 342.498Z" fill="white"/>
<rect x="1225.31" y="319.937" width="102.221" height="39.0632" stroke="white" stroke-width="3.51579"/>
<path fill-rule="evenodd" clip-rule="evenodd" d="M548.953 378L1213 378V376L548.995 376C548.998 376.166 549 376.333 549 376.5C549 377.004 548.984 377.504 548.953 378ZM502.047 378C502.016 377.504 502 377.004 502 376.5C502 376.333 502.002 376.166 502.005 376H459V378H502.047Z" fill="white"/>
<path d="M1190 353L1214 377L1190 401" stroke="white" stroke-width="2"/>
<circle cx="525.5" cy="376.5" r="19.5" stroke="white" stroke-width="2"/>
<path d="M516 377L522 383L534 371" stroke="white" stroke-width="2"/>
<rect width="319" height="86" transform="translate(505 331)" fill="white"/>
<path d="M567.358 382.343H565.049L570.807 365.359H573.116L567.358 382.343ZM577.886 381H574.771V364.5H577.886V381ZM579.97 375.081C579.97 373.928 580.192 372.9 580.636 371.998C581.08 371.096 581.717 370.397 582.548 369.903C583.386 369.409 584.356 369.162 585.459 369.162C587.027 369.162 588.306 369.642 589.294 370.602C590.289 371.561 590.844 372.865 590.959 374.512L590.98 375.307C590.98 377.09 590.483 378.522 589.487 379.604C588.492 380.678 587.156 381.215 585.48 381.215C583.805 381.215 582.465 380.678 581.463 379.604C580.467 378.529 579.97 377.068 579.97 375.221V375.081ZM583.074 375.307C583.074 376.41 583.282 377.255 583.697 377.842C584.113 378.422 584.707 378.712 585.48 378.712C586.232 378.712 586.82 378.425 587.242 377.853C587.665 377.272 587.876 376.349 587.876 375.081C587.876 374 587.665 373.162 587.242 372.567C586.82 371.973 586.225 371.676 585.459 371.676C584.7 371.676 584.113 371.973 583.697 372.567C583.282 373.155 583.074 374.068 583.074 375.307ZM592.441 375.103C592.441 373.319 592.864 371.883 593.709 370.795C594.561 369.706 595.707 369.162 597.146 369.162C598.421 369.162 599.413 369.599 600.122 370.473L600.251 369.377H603.065V380.613C603.065 381.63 602.833 382.515 602.367 383.267C601.909 384.019 601.261 384.591 600.423 384.985C599.585 385.379 598.604 385.576 597.479 385.576C596.627 385.576 595.797 385.404 594.987 385.061C594.178 384.724 593.566 384.287 593.15 383.75L594.525 381.859C595.299 382.726 596.237 383.159 597.34 383.159C598.163 383.159 598.804 382.937 599.263 382.493C599.721 382.056 599.95 381.433 599.95 380.624V380.001C599.234 380.81 598.292 381.215 597.125 381.215C595.729 381.215 594.597 380.671 593.73 379.582C592.871 378.486 592.441 377.036 592.441 375.231V375.103ZM595.546 375.328C595.546 376.381 595.757 377.208 596.18 377.81C596.602 378.404 597.182 378.701 597.92 378.701C598.865 378.701 599.542 378.347 599.95 377.638V372.75C599.535 372.041 598.865 371.687 597.941 371.687C597.197 371.687 596.609 371.991 596.18 372.6C595.757 373.208 595.546 374.118 595.546 375.328ZM608.737 381H605.622V369.377H608.737V381ZM605.439 366.369C605.439 365.904 605.593 365.521 605.901 365.22C606.216 364.919 606.643 364.769 607.18 364.769C607.71 364.769 608.132 364.919 608.447 365.22C608.762 365.521 608.92 365.904 608.92 366.369C608.92 366.842 608.759 367.229 608.437 367.529C608.121 367.83 607.702 367.98 607.18 367.98C606.657 367.98 606.234 367.83 605.912 367.529C605.597 367.229 605.439 366.842 605.439 366.369ZM614.162 369.377L614.259 370.72C615.09 369.681 616.203 369.162 617.6 369.162C618.831 369.162 619.748 369.524 620.35 370.247C620.951 370.97 621.259 372.052 621.273 373.491V381H618.169V373.566C618.169 372.908 618.026 372.431 617.739 372.138C617.453 371.837 616.977 371.687 616.311 371.687C615.437 371.687 614.782 372.059 614.345 372.804V381H611.24V369.377H614.162ZM624.614 382.343H622.305L628.062 365.359H630.372L624.614 382.343ZM638.601 381C638.457 380.721 638.354 380.373 638.289 379.958C637.537 380.796 636.56 381.215 635.356 381.215C634.218 381.215 633.272 380.885 632.521 380.227C631.776 379.568 631.403 378.737 631.403 377.734C631.403 376.503 631.858 375.557 632.768 374.898C633.684 374.24 635.006 373.907 636.731 373.899H638.16V373.233C638.16 372.696 638.021 372.267 637.741 371.944C637.469 371.622 637.036 371.461 636.441 371.461C635.919 371.461 635.507 371.586 635.206 371.837C634.912 372.088 634.766 372.431 634.766 372.868H631.661C631.661 372.195 631.869 371.572 632.284 370.999C632.7 370.426 633.287 369.979 634.046 369.656C634.805 369.327 635.657 369.162 636.603 369.162C638.035 369.162 639.17 369.524 640.008 370.247C640.853 370.963 641.275 371.973 641.275 373.276V378.314C641.283 379.417 641.437 380.252 641.737 380.817V381H638.601ZM636.033 378.841C636.492 378.841 636.914 378.741 637.301 378.54C637.688 378.332 637.974 378.057 638.16 377.713V375.715H637C635.446 375.715 634.619 376.252 634.519 377.326L634.508 377.509C634.508 377.896 634.644 378.214 634.916 378.465C635.188 378.715 635.561 378.841 636.033 378.841ZM648.494 378.712C649.067 378.712 649.533 378.554 649.891 378.239C650.249 377.924 650.435 377.505 650.449 376.982H653.36C653.353 377.77 653.138 378.493 652.716 379.152C652.293 379.804 651.713 380.312 650.976 380.678C650.245 381.036 649.436 381.215 648.548 381.215C646.886 381.215 645.576 380.688 644.616 379.636C643.657 378.576 643.177 377.115 643.177 375.253V375.049C643.177 373.258 643.653 371.83 644.605 370.763C645.558 369.696 646.865 369.162 648.526 369.162C649.98 369.162 651.144 369.577 652.018 370.408C652.898 371.232 653.346 372.331 653.36 373.706H650.449C650.435 373.104 650.249 372.618 649.891 372.245C649.533 371.866 649.06 371.676 648.473 371.676C647.749 371.676 647.201 371.941 646.829 372.471C646.464 372.993 646.281 373.846 646.281 375.027V375.35C646.281 376.546 646.464 377.405 646.829 377.928C647.194 378.451 647.749 378.712 648.494 378.712ZM659.967 378.712C660.54 378.712 661.005 378.554 661.363 378.239C661.721 377.924 661.908 377.505 661.922 376.982H664.833C664.826 377.77 664.611 378.493 664.188 379.152C663.766 379.804 663.186 380.312 662.448 380.678C661.718 381.036 660.909 381.215 660.021 381.215C658.359 381.215 657.049 380.688 656.089 379.636C655.129 378.576 654.649 377.115 654.649 375.253V375.049C654.649 373.258 655.126 371.83 656.078 370.763C657.031 369.696 658.338 369.162 659.999 369.162C661.453 369.162 662.617 369.577 663.49 370.408C664.371 371.232 664.819 372.331 664.833 373.706H661.922C661.908 373.104 661.721 372.618 661.363 372.245C661.005 371.866 660.533 371.676 659.945 371.676C659.222 371.676 658.674 371.941 658.302 372.471C657.937 372.993 657.754 373.846 657.754 375.027V375.35C657.754 376.546 657.937 377.405 658.302 377.928C658.667 378.451 659.222 378.712 659.967 378.712ZM671.955 381.215C670.251 381.215 668.861 380.692 667.787 379.646C666.72 378.601 666.187 377.208 666.187 375.468V375.167C666.187 374 666.412 372.958 666.863 372.041C667.314 371.117 667.952 370.408 668.775 369.914C669.606 369.413 670.551 369.162 671.611 369.162C673.201 369.162 674.451 369.663 675.36 370.666C676.277 371.669 676.735 373.09 676.735 374.931V376.198H669.334C669.434 376.957 669.735 377.566 670.236 378.024C670.745 378.483 671.386 378.712 672.159 378.712C673.355 378.712 674.29 378.279 674.963 377.412L676.488 379.12C676.023 379.779 675.393 380.295 674.598 380.667C673.803 381.032 672.922 381.215 671.955 381.215ZM671.601 371.676C670.985 371.676 670.483 371.883 670.097 372.299C669.717 372.714 669.474 373.309 669.366 374.082H673.685V373.835C673.67 373.147 673.484 372.618 673.126 372.245C672.768 371.866 672.259 371.676 671.601 371.676ZM684.803 377.788C684.803 377.409 684.613 377.111 684.233 376.896C683.861 376.674 683.259 376.478 682.429 376.306C679.664 375.726 678.282 374.551 678.282 372.782C678.282 371.751 678.708 370.892 679.561 370.204C680.42 369.509 681.541 369.162 682.923 369.162C684.398 369.162 685.576 369.509 686.457 370.204C687.345 370.899 687.789 371.801 687.789 372.911H684.685C684.685 372.467 684.541 372.102 684.255 371.815C683.968 371.522 683.521 371.375 682.912 371.375C682.389 371.375 681.985 371.493 681.698 371.729C681.412 371.966 681.269 372.267 681.269 372.632C681.269 372.976 681.43 373.255 681.752 373.47C682.081 373.677 682.633 373.86 683.406 374.018C684.18 374.168 684.831 374.34 685.361 374.533C687.001 375.135 687.821 376.177 687.821 377.659C687.821 378.719 687.367 379.578 686.457 380.237C685.548 380.889 684.373 381.215 682.934 381.215C681.96 381.215 681.093 381.043 680.334 380.699C679.582 380.348 678.991 379.872 678.562 379.271C678.132 378.662 677.917 378.007 677.917 377.305H680.86C680.889 377.856 681.093 378.279 681.473 378.572C681.852 378.866 682.361 379.013 682.998 379.013C683.592 379.013 684.04 378.902 684.341 378.68C684.649 378.451 684.803 378.153 684.803 377.788ZM696.125 377.788C696.125 377.409 695.935 377.111 695.556 376.896C695.183 376.674 694.582 376.478 693.751 376.306C690.987 375.726 689.604 374.551 689.604 372.782C689.604 371.751 690.031 370.892 690.883 370.204C691.742 369.509 692.863 369.162 694.245 369.162C695.72 369.162 696.898 369.509 697.779 370.204C698.667 370.899 699.111 371.801 699.111 372.911H696.007C696.007 372.467 695.864 372.102 695.577 371.815C695.291 371.522 694.843 371.375 694.234 371.375C693.712 371.375 693.307 371.493 693.021 371.729C692.734 371.966 692.591 372.267 692.591 372.632C692.591 372.976 692.752 373.255 693.074 373.47C693.404 373.677 693.955 373.86 694.729 374.018C695.502 374.168 696.154 374.34 696.684 374.533C698.324 375.135 699.144 376.177 699.144 377.659C699.144 378.719 698.689 379.578 697.779 380.237C696.87 380.889 695.695 381.215 694.256 381.215C693.282 381.215 692.415 381.043 691.656 380.699C690.904 380.348 690.313 379.872 689.884 379.271C689.454 378.662 689.239 378.007 689.239 377.305H692.183C692.211 377.856 692.415 378.279 692.795 378.572C693.174 378.866 693.683 379.013 694.32 379.013C694.915 379.013 695.362 378.902 695.663 378.68C695.971 378.451 696.125 378.153 696.125 377.788ZM707.189 375.554H701.142V373.051H707.189V375.554ZM713.398 366.52V369.377H715.386V371.654H713.398V377.455C713.398 377.885 713.481 378.193 713.646 378.379C713.81 378.565 714.125 378.658 714.591 378.658C714.935 378.658 715.239 378.633 715.504 378.583V380.936C714.895 381.122 714.269 381.215 713.624 381.215C711.447 381.215 710.337 380.116 710.294 377.917V371.654H708.597V369.377H710.294V366.52H713.398ZM716.31 375.081C716.31 373.928 716.532 372.9 716.976 371.998C717.42 371.096 718.057 370.397 718.888 369.903C719.726 369.409 720.696 369.162 721.799 369.162C723.367 369.162 724.646 369.642 725.634 370.602C726.629 371.561 727.184 372.865 727.299 374.512L727.32 375.307C727.32 377.09 726.823 378.522 725.827 379.604C724.832 380.678 723.496 381.215 721.82 381.215C720.145 381.215 718.805 380.678 717.803 379.604C716.807 378.529 716.31 377.068 716.31 375.221V375.081ZM719.414 375.307C719.414 376.41 719.622 377.255 720.037 377.842C720.452 378.422 721.047 378.712 721.82 378.712C722.572 378.712 723.16 378.425 723.582 377.853C724.005 377.272 724.216 376.349 724.216 375.081C724.216 374 724.005 373.162 723.582 372.567C723.16 371.973 722.565 371.676 721.799 371.676C721.04 371.676 720.452 371.973 720.037 372.567C719.622 373.155 719.414 374.068 719.414 375.307ZM733.454 376.338L732.337 377.455V381H729.232V364.5H732.337V373.642L732.938 372.868L735.914 369.377H739.642L735.441 374.222L740.007 381H736.44L733.454 376.338ZM746.119 381.215C744.415 381.215 743.025 380.692 741.951 379.646C740.884 378.601 740.351 377.208 740.351 375.468V375.167C740.351 374 740.576 372.958 741.027 372.041C741.479 371.117 742.116 370.408 742.939 369.914C743.77 369.413 744.715 369.162 745.775 369.162C747.365 369.162 748.615 369.663 749.524 370.666C750.441 371.669 750.899 373.09 750.899 374.931V376.198H743.498C743.598 376.957 743.899 377.566 744.4 378.024C744.909 378.483 745.55 378.712 746.323 378.712C747.519 378.712 748.454 378.279 749.127 377.412L750.652 379.12C750.187 379.779 749.557 380.295 748.762 380.667C747.967 381.032 747.086 381.215 746.119 381.215ZM745.765 371.676C745.149 371.676 744.647 371.883 744.261 372.299C743.881 372.714 743.638 373.309 743.53 374.082H747.849V373.835C747.834 373.147 747.648 372.618 747.29 372.245C746.932 371.866 746.424 371.676 745.765 371.676ZM755.529 369.377L755.626 370.72C756.457 369.681 757.57 369.162 758.967 369.162C760.199 369.162 761.115 369.524 761.717 370.247C762.318 370.97 762.626 372.052 762.641 373.491V381H759.536V373.566C759.536 372.908 759.393 372.431 759.106 372.138C758.82 371.837 758.344 371.687 757.678 371.687C756.804 371.687 756.149 372.059 755.712 372.804V381H752.607V369.377H755.529Z" fill="black"/>
<path fill-rule="evenodd" clip-rule="evenodd" d="M1123.05 471L463 471V469L1123.01 469C1123 469.166 1123 469.333 1123 469.5C1123 470.004 1123.02 470.504 1123.05 471ZM1169.95 471C1169.98 470.504 1170 470.004 1170 469.5C1170 469.333 1170 469.166 1169.99 469H1213V471H1169.95Z" fill="white"/>
<path d="M486 446L462 470L486 494" stroke="white" stroke-width="2"/>
<circle r="19.5" transform="matrix(-1 0 0 1 1146.5 469.5)" stroke="white" stroke-width="2"/>
<path d="M1156 470L1150 476L1138 464" stroke="white" stroke-width="2"/>
<rect width="230" height="86" transform="translate(974 424)" fill="white"/>
<path d="M1042.15 458.359H1045.38V469.188C1045.38 470.183 1045.15 471.064 1044.71 471.83C1044.27 472.589 1043.65 473.176 1042.85 473.592C1042.05 474.007 1041.14 474.215 1040.13 474.215C1038.48 474.215 1037.19 473.796 1036.27 472.958C1035.34 472.113 1034.88 470.921 1034.88 469.381H1038.12C1038.12 470.147 1038.29 470.713 1038.61 471.078C1038.93 471.443 1039.44 471.626 1040.13 471.626C1040.75 471.626 1041.24 471.415 1041.61 470.992C1041.97 470.57 1042.15 469.968 1042.15 469.188V458.359ZM1060.32 469.488L1062.42 458.359H1065.64L1062.17 474H1058.92L1056.38 463.537L1053.83 474H1050.59L1047.12 458.359H1050.33L1052.44 469.467L1055.02 458.359H1057.75L1060.32 469.488ZM1079.31 460.97H1074.52V474H1071.3V460.97H1066.57V458.359H1079.31V460.97ZM1097.12 460.97H1092.33V474H1089.11V460.97H1084.38V458.359H1097.12V460.97ZM1096.05 468.081C1096.05 466.928 1096.27 465.9 1096.71 464.998C1097.16 464.096 1097.79 463.397 1098.62 462.903C1099.46 462.409 1100.43 462.162 1101.54 462.162C1103.1 462.162 1104.38 462.642 1105.37 463.602C1106.37 464.561 1106.92 465.865 1107.04 467.512L1107.06 468.307C1107.06 470.09 1106.56 471.522 1105.56 472.604C1104.57 473.678 1103.23 474.215 1101.56 474.215C1099.88 474.215 1098.54 473.678 1097.54 472.604C1096.54 471.529 1096.05 470.068 1096.05 468.221V468.081ZM1099.15 468.307C1099.15 469.41 1099.36 470.255 1099.77 470.842C1100.19 471.422 1100.78 471.712 1101.56 471.712C1102.31 471.712 1102.9 471.425 1103.32 470.853C1103.74 470.272 1103.95 469.349 1103.95 468.081C1103.95 467 1103.74 466.162 1103.32 465.567C1102.9 464.973 1102.3 464.676 1101.54 464.676C1100.78 464.676 1100.19 464.973 1099.77 465.567C1099.36 466.155 1099.15 467.068 1099.15 468.307ZM1113.19 469.338L1112.07 470.455V474H1108.97V457.5H1112.07V466.642L1112.68 465.868L1115.65 462.377H1119.38L1115.18 467.222L1119.74 474H1116.18L1113.19 469.338ZM1125.86 474.215C1124.15 474.215 1122.76 473.692 1121.69 472.646C1120.62 471.601 1120.09 470.208 1120.09 468.468V468.167C1120.09 467 1120.31 465.958 1120.76 465.041C1121.22 464.117 1121.85 463.408 1122.68 462.914C1123.51 462.413 1124.45 462.162 1125.51 462.162C1127.1 462.162 1128.35 462.663 1129.26 463.666C1130.18 464.669 1130.64 466.09 1130.64 467.931V469.198H1123.24C1123.34 469.957 1123.64 470.566 1124.14 471.024C1124.65 471.483 1125.29 471.712 1126.06 471.712C1127.26 471.712 1128.19 471.279 1128.86 470.412L1130.39 472.12C1129.92 472.779 1129.29 473.295 1128.5 473.667C1127.7 474.032 1126.82 474.215 1125.86 474.215ZM1125.5 464.676C1124.89 464.676 1124.38 464.883 1124 465.299C1123.62 465.714 1123.38 466.309 1123.27 467.082H1127.59V466.835C1127.57 466.147 1127.39 465.618 1127.03 465.245C1126.67 464.866 1126.16 464.676 1125.5 464.676ZM1135.27 462.377L1135.36 463.72C1136.19 462.681 1137.31 462.162 1138.7 462.162C1139.94 462.162 1140.85 462.524 1141.45 463.247C1142.06 463.97 1142.36 465.052 1142.38 466.491V474H1139.27V466.566C1139.27 465.908 1139.13 465.431 1138.84 465.138C1138.56 464.837 1138.08 464.687 1137.42 464.687C1136.54 464.687 1135.89 465.059 1135.45 465.804V474H1132.34V462.377H1135.27Z" fill="black"/>
<rect x="94.7579" y="720.758" width="362.484" height="163.484" fill="black" stroke="white" stroke-width="3.51579"/>
<path d="M211.607 804.395H200.069V816.537H196.443V789.043H213.476V792.027H200.069V801.431H211.607V804.395ZM226.657 799.24C226.128 799.152 225.556 799.108 224.939 799.108C222.647 799.108 221.093 800.084 220.274 802.035V816.537H216.781V796.105H220.18L220.237 798.466C221.382 796.64 223.006 795.728 225.109 795.728C225.788 795.728 226.305 795.816 226.657 795.992V799.24ZM228.583 806.133C228.583 804.131 228.973 802.331 229.754 800.732C230.547 799.133 231.642 797.899 233.04 797.031C234.45 796.162 236.055 795.728 237.855 795.728C240.637 795.728 242.884 796.691 244.597 798.617C246.321 800.543 247.184 803.105 247.184 806.303V806.548C247.184 808.537 246.8 810.325 246.032 811.911C245.276 813.485 244.187 814.712 242.765 815.593C241.355 816.475 239.731 816.915 237.893 816.915C235.123 816.915 232.876 815.952 231.151 814.026C229.439 812.1 228.583 809.551 228.583 806.378V806.133ZM232.096 806.548C232.096 808.814 232.618 810.633 233.663 812.005C234.72 813.378 236.13 814.064 237.893 814.064C239.668 814.064 241.078 813.371 242.123 811.987C243.168 810.589 243.69 808.638 243.69 806.133C243.69 803.892 243.155 802.079 242.085 800.694C241.027 799.297 239.618 798.598 237.855 798.598C236.13 798.598 234.739 799.284 233.682 800.656C232.624 802.029 232.096 803.992 232.096 806.548ZM254.869 796.105L254.982 798.674C256.544 796.71 258.583 795.728 261.101 795.728C265.419 795.728 267.597 798.164 267.635 803.036V816.537H264.141V803.017C264.128 801.544 263.789 800.455 263.121 799.75C262.467 799.045 261.441 798.692 260.043 798.692C258.91 798.692 257.916 798.995 257.06 799.599C256.204 800.203 255.536 800.996 255.058 801.978V816.537H251.565V796.105H254.869ZM277.643 791.158V796.105H281.457V798.806H277.643V811.477C277.643 812.295 277.813 812.912 278.153 813.327C278.493 813.73 279.072 813.932 279.89 813.932C280.293 813.932 280.847 813.856 281.552 813.705V816.537C280.633 816.789 279.739 816.915 278.87 816.915C277.309 816.915 276.132 816.443 275.339 815.499C274.546 814.555 274.149 813.214 274.149 811.477V798.806H270.429V796.105H274.149V791.158H277.643ZM292.825 806.284H283.61V803.432H292.825V806.284ZM312.332 803.829H300.417V813.573H314.258V816.537H296.791V789.043H314.069V792.027H300.417V800.864H312.332V803.829ZM321.528 796.105L321.642 798.674C323.203 796.71 325.242 795.728 327.76 795.728C332.078 795.728 334.256 798.164 334.294 803.036V816.537H330.8V803.017C330.788 801.544 330.448 800.455 329.781 799.75C329.126 799.045 328.1 798.692 326.703 798.692C325.57 798.692 324.575 798.995 323.719 799.599C322.863 800.203 322.196 800.996 321.717 801.978V816.537H318.224V796.105H321.528ZM338.713 806.151C338.713 803.017 339.455 800.499 340.941 798.598C342.426 796.684 344.371 795.728 346.776 795.728C349.168 795.728 351.062 796.546 352.46 798.183V787.532H355.953V816.537H352.743L352.573 814.347C351.176 816.059 349.231 816.915 346.738 816.915C344.371 816.915 342.439 815.946 340.941 814.007C339.455 812.068 338.713 809.538 338.713 806.416V806.151ZM342.206 806.548C342.206 808.864 342.684 810.677 343.641 811.987C344.598 813.296 345.92 813.95 347.607 813.95C349.822 813.95 351.44 812.956 352.46 810.967V801.582C351.415 799.656 349.81 798.692 347.644 798.692C345.932 798.692 344.598 799.353 343.641 800.675C342.684 801.997 342.206 803.955 342.206 806.548Z" fill="white"/>
<path d="M434.39 733.063L444.937 743.61M434.39 743.61L444.937 733.063" stroke="white" stroke-width="3.51579"/>
<rect x="105.305" y="704.937" width="104.221" height="39.0632" fill="black"/>
<path d="M137.145 726.478H134.683V731.968H131.593V716.971H137.166C138.937 716.971 140.304 717.366 141.265 718.156C142.226 718.946 142.707 720.061 142.707 721.503C142.707 722.527 142.484 723.381 142.038 724.068C141.598 724.748 140.929 725.29 140.029 725.696L143.274 731.824V731.968H139.957L137.145 726.478ZM134.683 723.975H137.176C137.952 723.975 138.553 723.78 138.978 723.388C139.404 722.99 139.617 722.444 139.617 721.751C139.617 721.043 139.415 720.487 139.009 720.082C138.611 719.677 137.997 719.474 137.166 719.474H134.683V723.975ZM150 732.174C148.365 732.174 147.033 731.673 146.003 730.671C144.98 729.668 144.468 728.332 144.468 726.664V726.375C144.468 725.256 144.685 724.257 145.117 723.378C145.55 722.492 146.161 721.812 146.951 721.339C147.747 720.858 148.654 720.618 149.67 720.618C151.194 720.618 152.393 721.098 153.265 722.06C154.144 723.021 154.583 724.384 154.583 726.149V727.364H147.486C147.583 728.092 147.871 728.676 148.352 729.115C148.839 729.555 149.454 729.774 150.195 729.774C151.342 729.774 152.238 729.359 152.884 728.528L154.346 730.166C153.9 730.798 153.296 731.292 152.533 731.649C151.771 731.999 150.927 732.174 150 732.174ZM149.66 723.028C149.069 723.028 148.589 723.227 148.218 723.625C147.854 724.024 147.62 724.593 147.517 725.335H151.658V725.098C151.644 724.439 151.466 723.931 151.122 723.574C150.779 723.21 150.291 723.028 149.66 723.028ZM162.741 731.968C162.604 731.701 162.504 731.368 162.442 730.969C161.721 731.773 160.784 732.174 159.63 732.174C158.538 732.174 157.632 731.859 156.911 731.227C156.197 730.595 155.84 729.798 155.84 728.837C155.84 727.656 156.276 726.75 157.148 726.118C158.027 725.486 159.294 725.167 160.949 725.16H162.319V724.521C162.319 724.006 162.185 723.594 161.917 723.285C161.656 722.976 161.241 722.822 160.671 722.822C160.169 722.822 159.775 722.942 159.486 723.182C159.205 723.423 159.064 723.752 159.064 724.171H156.087C156.087 723.526 156.286 722.928 156.684 722.379C157.083 721.83 157.646 721.4 158.374 721.091C159.102 720.776 159.919 720.618 160.825 720.618C162.198 720.618 163.287 720.964 164.09 721.658C164.901 722.345 165.306 723.313 165.306 724.563V729.393C165.313 730.451 165.46 731.251 165.749 731.793V731.968H162.741ZM160.279 729.898C160.719 729.898 161.124 729.802 161.495 729.61C161.865 729.411 162.14 729.146 162.319 728.817V726.901H161.206C159.716 726.901 158.923 727.416 158.827 728.446L158.817 728.621C158.817 728.992 158.947 729.297 159.208 729.538C159.469 729.778 159.826 729.898 160.279 729.898ZM172.227 729.774C172.777 729.774 173.223 729.623 173.566 729.321C173.91 729.019 174.088 728.617 174.102 728.116H176.893C176.887 728.871 176.681 729.565 176.275 730.197C175.87 730.822 175.314 731.309 174.607 731.659C173.906 732.003 173.13 732.174 172.279 732.174C170.686 732.174 169.429 731.67 168.509 730.66C167.589 729.644 167.129 728.243 167.129 726.458V726.262C167.129 724.545 167.585 723.175 168.499 722.152C169.412 721.129 170.665 720.618 172.258 720.618C173.652 720.618 174.768 721.016 175.606 721.812C176.45 722.602 176.88 723.656 176.893 724.975H174.102C174.088 724.398 173.91 723.931 173.566 723.574C173.223 723.21 172.77 723.028 172.207 723.028C171.513 723.028 170.988 723.282 170.631 723.79C170.281 724.291 170.106 725.108 170.106 726.241V726.55C170.106 727.697 170.281 728.521 170.631 729.023C170.981 729.524 171.513 729.774 172.227 729.774ZM182.157 718.084V720.824H184.062V723.007H182.157V728.569C182.157 728.981 182.236 729.277 182.394 729.455C182.552 729.634 182.854 729.723 183.3 729.723C183.63 729.723 183.922 729.699 184.176 729.651V731.907C183.592 732.085 182.991 732.174 182.373 732.174C180.286 732.174 179.221 731.12 179.18 729.012V723.007H177.553V720.824H179.18V718.084H182.157Z" fill="white"/>
<rect x="105.305" y="704.937" width="104.221" height="39.0632" stroke="white" stroke-width="3.51579"/>
<rect x="1214.76" y="715.758" width="362.484" height="163.484" fill="black" stroke="white" stroke-width="3.51579"/>
<path d="M1280.92 800.774V811.537H1277.3V784.043H1287.44C1290.45 784.043 1292.8 784.811 1294.5 786.347C1296.21 787.883 1297.07 789.916 1297.07 792.446C1297.07 795.115 1296.23 797.173 1294.56 798.621C1292.9 800.056 1290.51 800.774 1287.4 800.774H1280.92ZM1280.92 797.809H1287.44C1289.38 797.809 1290.86 797.356 1291.89 796.449C1292.93 795.53 1293.44 794.209 1293.44 792.484C1293.44 790.847 1292.93 789.538 1291.89 788.556C1290.86 787.574 1289.45 787.064 1287.65 787.027H1280.92V797.809ZM1311.02 794.24C1310.49 794.152 1309.92 794.108 1309.31 794.108C1307.01 794.108 1305.46 795.084 1304.64 797.035V811.537H1301.15V791.105H1304.55L1304.6 793.466C1305.75 791.64 1307.37 790.728 1309.48 790.728C1310.15 790.728 1310.67 790.816 1311.02 790.992V794.24ZM1312.95 801.133C1312.95 799.131 1313.34 797.331 1314.12 795.732C1314.91 794.133 1316.01 792.899 1317.41 792.031C1318.82 791.162 1320.42 790.728 1322.22 790.728C1325 790.728 1327.25 791.691 1328.96 793.617C1330.69 795.543 1331.55 798.105 1331.55 801.303V801.548C1331.55 803.537 1331.17 805.325 1330.4 806.911C1329.64 808.485 1328.55 809.712 1327.13 810.593C1325.72 811.475 1324.1 811.915 1322.26 811.915C1319.49 811.915 1317.24 810.952 1315.52 809.026C1313.81 807.1 1312.95 804.551 1312.95 801.378V801.133ZM1316.46 801.548C1316.46 803.814 1316.98 805.633 1318.03 807.005C1319.09 808.378 1320.5 809.064 1322.26 809.064C1324.03 809.064 1325.44 808.371 1326.49 806.987C1327.53 805.589 1328.06 803.638 1328.06 801.133C1328.06 798.892 1327.52 797.079 1326.45 795.694C1325.39 794.297 1323.98 793.598 1322.22 793.598C1320.5 793.598 1319.11 794.284 1318.05 795.656C1316.99 797.029 1316.46 798.992 1316.46 801.548ZM1339.54 791.105V813.898C1339.54 817.826 1337.76 819.79 1334.19 819.79C1333.43 819.79 1332.71 819.676 1332.06 819.45V816.655C1332.46 816.756 1332.99 816.806 1333.65 816.806C1334.43 816.806 1335.02 816.592 1335.42 816.164C1335.84 815.749 1336.04 815.018 1336.04 813.973V791.105H1339.54ZM1335.69 785.686C1335.69 785.132 1335.86 784.66 1336.2 784.27C1336.55 783.867 1337.06 783.665 1337.73 783.665C1338.4 783.665 1338.92 783.86 1339.27 784.251C1339.63 784.641 1339.8 785.119 1339.8 785.686C1339.8 786.252 1339.63 786.724 1339.27 787.102C1338.92 787.48 1338.4 787.669 1337.73 787.669C1337.05 787.669 1336.54 787.48 1336.2 787.102C1335.86 786.724 1335.69 786.252 1335.69 785.686ZM1353.66 811.915C1350.89 811.915 1348.64 811.009 1346.9 809.196C1345.17 807.37 1344.3 804.934 1344.3 801.888V801.246C1344.3 799.219 1344.68 797.413 1345.45 795.826C1346.23 794.227 1347.31 792.981 1348.7 792.087C1350.09 791.181 1351.6 790.728 1353.23 790.728C1355.88 790.728 1357.95 791.603 1359.42 793.353C1360.9 795.102 1361.63 797.608 1361.63 800.868V802.322H1347.79C1347.84 804.337 1348.43 805.967 1349.55 807.213C1350.68 808.447 1352.11 809.064 1353.85 809.064C1355.09 809.064 1356.13 808.812 1356.99 808.308C1357.84 807.805 1358.59 807.138 1359.23 806.307L1361.37 807.968C1359.66 810.6 1357.09 811.915 1353.66 811.915ZM1353.23 793.598C1351.82 793.598 1350.64 794.114 1349.68 795.146C1348.72 796.166 1348.13 797.601 1347.9 799.452H1358.14V799.188C1358.04 797.413 1357.56 796.04 1356.7 795.071C1355.85 794.089 1354.69 793.598 1353.23 793.598ZM1373.89 809.064C1375.13 809.064 1376.22 808.686 1377.15 807.931C1378.09 807.175 1378.6 806.231 1378.7 805.098H1382.01C1381.94 806.269 1381.54 807.383 1380.8 808.441C1380.06 809.498 1379.06 810.342 1377.82 810.971C1376.58 811.6 1375.27 811.915 1373.89 811.915C1371.11 811.915 1368.89 810.99 1367.24 809.139C1365.6 807.276 1364.79 804.733 1364.79 801.51V800.925C1364.79 798.936 1365.15 797.167 1365.88 795.619C1366.61 794.07 1367.66 792.868 1369.02 792.012C1370.39 791.156 1372.01 790.728 1373.87 790.728C1376.16 790.728 1378.06 791.414 1379.57 792.786C1381.09 794.158 1381.91 795.94 1382.01 798.13H1378.7C1378.6 796.808 1378.1 795.726 1377.19 794.882C1376.3 794.026 1375.19 793.598 1373.87 793.598C1372.09 793.598 1370.71 794.24 1369.73 795.524C1368.76 796.796 1368.28 798.64 1368.28 801.057V801.718C1368.28 804.072 1368.76 805.885 1369.73 807.156C1370.7 808.428 1372.09 809.064 1373.89 809.064ZM1390.67 786.158V791.105H1394.49V793.806H1390.67V806.477C1390.67 807.295 1390.84 807.912 1391.18 808.327C1391.52 808.73 1392.1 808.932 1392.92 808.932C1393.32 808.932 1393.88 808.856 1394.58 808.705V811.537C1393.66 811.789 1392.77 811.915 1391.9 811.915C1390.34 811.915 1389.16 811.443 1388.37 810.499C1387.58 809.555 1387.18 808.214 1387.18 806.477V793.806H1383.46V791.105H1387.18V786.158H1390.67ZM1416.83 799.282C1413.72 798.388 1411.45 797.293 1410.03 795.996C1408.62 794.687 1407.92 793.076 1407.92 791.162C1407.92 788.997 1408.78 787.209 1410.5 785.799C1412.24 784.377 1414.49 783.665 1417.26 783.665C1419.15 783.665 1420.83 784.03 1422.3 784.76C1423.79 785.491 1424.94 786.498 1425.74 787.782C1426.56 789.066 1426.97 790.47 1426.97 791.993H1423.32C1423.32 790.331 1422.8 789.028 1421.74 788.084C1420.68 787.127 1419.19 786.649 1417.26 786.649C1415.48 786.649 1414.08 787.045 1413.07 787.839C1412.08 788.619 1411.58 789.708 1411.58 791.105C1411.58 792.226 1412.05 793.176 1413 793.957C1413.95 794.725 1415.57 795.43 1417.85 796.072C1420.14 796.714 1421.93 797.425 1423.21 798.206C1424.51 798.974 1425.46 799.874 1426.08 800.906C1426.71 801.938 1427.03 803.153 1427.03 804.551C1427.03 806.779 1426.16 808.566 1424.42 809.913C1422.68 811.248 1420.36 811.915 1417.45 811.915C1415.56 811.915 1413.8 811.556 1412.16 810.839C1410.53 810.109 1409.26 809.114 1408.37 807.855C1407.49 806.596 1407.05 805.167 1407.05 803.569H1410.69C1410.69 805.23 1411.3 806.546 1412.52 807.515C1413.76 808.472 1415.4 808.95 1417.45 808.95C1419.37 808.95 1420.83 808.56 1421.85 807.78C1422.87 806.999 1423.38 805.935 1423.38 804.588C1423.38 803.241 1422.91 802.203 1421.96 801.472C1421.02 800.73 1419.31 800 1416.83 799.282ZM1435.88 786.158V791.105H1439.7V793.806H1435.88V806.477C1435.88 807.295 1436.05 807.912 1436.39 808.327C1436.73 808.73 1437.31 808.932 1438.13 808.932C1438.53 808.932 1439.09 808.856 1439.79 808.705V811.537C1438.87 811.789 1437.98 811.915 1437.11 811.915C1435.55 811.915 1434.37 811.443 1433.58 810.499C1432.79 809.555 1432.39 808.214 1432.39 806.477V793.806H1428.67V791.105H1432.39V786.158H1435.88ZM1442.49 801.133C1442.49 799.131 1442.88 797.331 1443.66 795.732C1444.46 794.133 1445.55 792.899 1446.95 792.031C1448.36 791.162 1449.96 790.728 1451.76 790.728C1454.55 790.728 1456.79 791.691 1458.5 793.617C1460.23 795.543 1461.09 798.105 1461.09 801.303V801.548C1461.09 803.537 1460.71 805.325 1459.94 806.911C1459.18 808.485 1458.1 809.712 1456.67 810.593C1455.26 811.475 1453.64 811.915 1451.8 811.915C1449.03 811.915 1446.78 810.952 1445.06 809.026C1443.35 807.1 1442.49 804.551 1442.49 801.378V801.133ZM1446 801.548C1446 803.814 1446.53 805.633 1447.57 807.005C1448.63 808.378 1450.04 809.064 1451.8 809.064C1453.58 809.064 1454.99 808.371 1456.03 806.987C1457.08 805.589 1457.6 803.638 1457.6 801.133C1457.6 798.892 1457.06 797.079 1455.99 795.694C1454.94 794.297 1453.53 793.598 1451.76 793.598C1450.04 793.598 1448.65 794.284 1447.59 795.656C1446.53 797.029 1446 798.992 1446 801.548ZM1475.35 794.24C1474.82 794.152 1474.25 794.108 1473.63 794.108C1471.34 794.108 1469.78 795.084 1468.97 797.035V811.537H1465.47V791.105H1468.87L1468.93 793.466C1470.07 791.64 1471.7 790.728 1473.8 790.728C1474.48 790.728 1475 790.816 1475.35 790.992V794.24ZM1486.68 811.915C1483.91 811.915 1481.66 811.009 1479.92 809.196C1478.18 807.37 1477.31 804.934 1477.31 801.888V801.246C1477.31 799.219 1477.7 797.413 1478.46 795.826C1479.25 794.227 1480.33 792.981 1481.71 792.087C1483.11 791.181 1484.62 790.728 1486.24 790.728C1488.9 790.728 1490.97 791.603 1492.44 793.353C1493.91 795.102 1494.65 797.608 1494.65 800.868V802.322H1480.81C1480.86 804.337 1481.44 805.967 1482.56 807.213C1483.7 808.447 1485.13 809.064 1486.87 809.064C1488.1 809.064 1489.15 808.812 1490 808.308C1490.86 807.805 1491.61 807.138 1492.25 806.307L1494.38 807.968C1492.67 810.6 1490.1 811.915 1486.68 811.915ZM1486.24 793.598C1484.83 793.598 1483.65 794.114 1482.69 795.146C1481.74 796.166 1481.15 797.601 1480.92 799.452H1491.15V799.188C1491.05 797.413 1490.58 796.04 1489.72 795.071C1488.86 794.089 1487.71 793.598 1486.24 793.598ZM1497.86 801.151C1497.86 798.017 1498.6 795.499 1500.09 793.598C1501.57 791.684 1503.52 790.728 1505.92 790.728C1508.31 790.728 1510.21 791.546 1511.61 793.183V782.532H1515.1V811.537H1511.89L1511.72 809.347C1510.32 811.059 1508.38 811.915 1505.88 811.915C1503.52 811.915 1501.58 810.946 1500.09 809.007C1498.6 807.068 1497.86 804.538 1497.86 801.416V801.151ZM1501.35 801.548C1501.35 803.864 1501.83 805.677 1502.79 806.987C1503.74 808.296 1505.07 808.95 1506.75 808.95C1508.97 808.95 1510.59 807.956 1511.61 805.967V796.582C1510.56 794.656 1508.96 793.692 1506.79 793.692C1505.08 793.692 1503.74 794.353 1502.79 795.675C1501.83 796.997 1501.35 798.955 1501.35 801.548Z" fill="white"/>
<path d="M1554.39 728.063L1564.94 738.61M1554.39 738.61L1564.94 728.063" stroke="white" stroke-width="3.51579"/>
<rect x="1225.31" y="699.937" width="102.221" height="39.0632" fill="black"/>
<path d="M1255.45 711.971L1259.31 722.848L1263.14 711.971H1267.2V726.968H1264.1V722.869L1264.41 715.793L1260.36 726.968H1258.24L1254.2 715.803L1254.51 722.869V726.968H1251.42V711.971H1255.45ZM1269.24 721.293C1269.24 720.187 1269.45 719.202 1269.88 718.337C1270.3 717.472 1270.91 716.802 1271.71 716.328C1272.51 715.855 1273.44 715.618 1274.5 715.618C1276 715.618 1277.23 716.078 1278.18 716.998C1279.13 717.918 1279.66 719.168 1279.77 720.747L1279.79 721.509C1279.79 723.219 1279.32 724.592 1278.36 725.629C1277.41 726.659 1276.13 727.174 1274.52 727.174C1272.91 727.174 1271.63 726.659 1270.67 725.629C1269.71 724.599 1269.24 723.199 1269.24 721.427V721.293ZM1272.21 721.509C1272.21 722.567 1272.41 723.377 1272.81 723.94C1273.21 724.496 1273.78 724.774 1274.52 724.774C1275.24 724.774 1275.8 724.5 1276.21 723.95C1276.61 723.394 1276.82 722.508 1276.82 721.293C1276.82 720.256 1276.61 719.453 1276.21 718.883C1275.8 718.313 1275.23 718.028 1274.5 718.028C1273.77 718.028 1273.21 718.313 1272.81 718.883C1272.41 719.446 1272.21 720.321 1272.21 721.509ZM1286.26 724.774C1286.81 724.774 1287.26 724.623 1287.6 724.321C1287.95 724.019 1288.12 723.617 1288.14 723.116H1290.93C1290.92 723.871 1290.72 724.565 1290.31 725.197C1289.91 725.822 1289.35 726.309 1288.64 726.659C1287.94 727.003 1287.17 727.174 1286.31 727.174C1284.72 727.174 1283.46 726.67 1282.54 725.66C1281.62 724.644 1281.16 723.243 1281.16 721.458V721.262C1281.16 719.545 1281.62 718.175 1282.53 717.152C1283.45 716.129 1284.7 715.618 1286.29 715.618C1287.69 715.618 1288.8 716.016 1289.64 716.812C1290.49 717.602 1290.91 718.656 1290.93 719.975H1288.14C1288.12 719.398 1287.95 718.931 1287.6 718.574C1287.26 718.21 1286.81 718.028 1286.24 718.028C1285.55 718.028 1285.02 718.282 1284.67 718.79C1284.32 719.291 1284.14 720.108 1284.14 721.241V721.55C1284.14 722.697 1284.32 723.521 1284.67 724.023C1285.02 724.524 1285.55 724.774 1286.26 724.774ZM1296.68 722.498L1295.6 723.569V726.968H1292.63V711.147H1295.6V719.913L1296.18 719.171L1299.03 715.824H1302.61L1298.58 720.469L1302.96 726.968H1299.54L1296.68 722.498Z" fill="white"/>
<rect x="1225.31" y="699.937" width="102.221" height="39.0632" stroke="white" stroke-width="3.51579"/>
<path fill-rule="evenodd" clip-rule="evenodd" d="M548.953 758H1213V756H548.995C548.998 756.166 549 756.333 549 756.5C549 757.004 548.984 757.504 548.953 758ZM502.047 758C502.016 757.504 502 757.004 502 756.5C502 756.333 502.002 756.166 502.005 756H459V758H502.047Z" fill="white"/>
<path d="M1190 733L1214 757L1190 781" stroke="white" stroke-width="2"/>
<circle cx="525.5" cy="756.5" r="19.5" stroke="white" stroke-width="2"/>
<path d="M516 757L522 763L534 751" stroke="white" stroke-width="2"/>
<rect width="247" height="86" transform="translate(505 711)" fill="white"/>
<path d="M567.259 762.343H564.949L570.707 745.359H573.017L567.259 762.343ZM581.245 761C581.102 760.721 580.998 760.373 580.934 759.958C580.182 760.796 579.204 761.215 578.001 761.215C576.862 761.215 575.917 760.885 575.165 760.227C574.42 759.568 574.048 758.737 574.048 757.734C574.048 756.503 574.503 755.557 575.412 754.898C576.329 754.24 577.65 753.907 579.376 753.899H580.805V753.233C580.805 752.696 580.665 752.267 580.386 751.944C580.114 751.622 579.68 751.461 579.086 751.461C578.563 751.461 578.151 751.586 577.851 751.837C577.557 752.088 577.41 752.431 577.41 752.868H574.306C574.306 752.195 574.513 751.572 574.929 750.999C575.344 750.426 575.931 749.979 576.69 749.656C577.45 749.327 578.302 749.162 579.247 749.162C580.679 749.162 581.814 749.524 582.652 750.247C583.497 750.963 583.92 751.973 583.92 753.276V758.314C583.927 759.417 584.081 760.252 584.382 760.817V761H581.245ZM578.678 758.841C579.136 758.841 579.559 758.741 579.945 758.54C580.332 758.332 580.618 758.057 580.805 757.713V755.715H579.645C578.09 755.715 577.263 756.252 577.163 757.326L577.152 757.509C577.152 757.896 577.288 758.214 577.561 758.465C577.833 758.715 578.205 758.841 578.678 758.841ZM596.768 755.296C596.768 757.086 596.359 758.522 595.543 759.604C594.734 760.678 593.638 761.215 592.256 761.215C591.081 761.215 590.132 760.807 589.409 759.99V765.469H586.305V749.377H589.184L589.291 750.516C590.043 749.613 591.024 749.162 592.234 749.162C593.667 749.162 594.78 749.692 595.575 750.752C596.37 751.812 596.768 753.273 596.768 755.135V755.296ZM593.663 755.07C593.663 753.989 593.47 753.155 593.083 752.567C592.703 751.98 592.148 751.687 591.418 751.687C590.444 751.687 589.774 752.059 589.409 752.804V757.562C589.789 758.329 590.465 758.712 591.439 758.712C592.922 758.712 593.663 757.498 593.663 755.07ZM601.978 761H598.862V749.377H601.978V761ZM598.68 746.369C598.68 745.904 598.834 745.521 599.142 745.22C599.457 744.919 599.883 744.769 600.42 744.769C600.95 744.769 601.372 744.919 601.688 745.22C602.003 745.521 602.16 745.904 602.16 746.369C602.16 746.842 601.999 747.229 601.677 747.529C601.362 747.83 600.943 747.98 600.42 747.98C599.897 747.98 599.475 747.83 599.152 747.529C598.837 747.229 598.68 746.842 598.68 746.369ZM605.522 762.343H603.213L608.971 745.359H611.28L605.522 762.343ZM623.236 755.296C623.236 757.086 622.828 758.522 622.012 759.604C621.202 760.678 620.107 761.215 618.725 761.215C617.55 761.215 616.601 760.807 615.878 759.99V765.469H612.773V749.377H615.652L615.76 750.516C616.512 749.613 617.493 749.162 618.703 749.162C620.135 749.162 621.249 749.692 622.044 750.752C622.839 751.812 623.236 753.273 623.236 755.135V755.296ZM620.132 755.07C620.132 753.989 619.938 753.155 619.552 752.567C619.172 751.98 618.617 751.687 617.887 751.687C616.913 751.687 616.243 752.059 615.878 752.804V757.562C616.257 758.329 616.934 758.712 617.908 758.712C619.391 758.712 620.132 757.498 620.132 755.07ZM631.701 752.288C631.279 752.231 630.906 752.202 630.584 752.202C629.41 752.202 628.64 752.6 628.274 753.395V761H625.17V749.377H628.103L628.188 750.763C628.812 749.696 629.674 749.162 630.777 749.162C631.121 749.162 631.443 749.209 631.744 749.302L631.701 752.288ZM632.335 755.081C632.335 753.928 632.557 752.9 633.001 751.998C633.445 751.096 634.082 750.397 634.913 749.903C635.751 749.409 636.721 749.162 637.824 749.162C639.393 749.162 640.671 749.642 641.659 750.602C642.655 751.561 643.21 752.865 643.324 754.512L643.346 755.307C643.346 757.09 642.848 758.522 641.853 759.604C640.857 760.678 639.521 761.215 637.846 761.215C636.17 761.215 634.831 760.678 633.828 759.604C632.833 758.529 632.335 757.068 632.335 755.221V755.081ZM635.439 755.307C635.439 756.41 635.647 757.255 636.062 757.842C636.478 758.422 637.072 758.712 637.846 758.712C638.598 758.712 639.185 758.425 639.607 757.853C640.03 757.272 640.241 756.349 640.241 755.081C640.241 754 640.03 753.162 639.607 752.567C639.185 751.973 638.59 751.676 637.824 751.676C637.065 751.676 636.478 751.973 636.062 752.567C635.647 753.155 635.439 754.068 635.439 755.307ZM648.545 749.377V761.634C648.545 762.916 648.205 763.911 647.524 764.62C646.844 765.336 645.863 765.694 644.581 765.694C644.044 765.694 643.532 765.633 643.045 765.512V763.052C643.417 763.116 643.743 763.148 644.022 763.148C644.961 763.148 645.43 762.651 645.43 761.655V749.377H648.545ZM645.183 746.369C645.183 745.904 645.337 745.521 645.645 745.22C645.96 744.919 646.386 744.769 646.923 744.769C647.46 744.769 647.882 744.919 648.19 745.22C648.506 745.521 648.663 745.904 648.663 746.369C648.663 746.842 648.502 747.229 648.18 747.529C647.865 747.83 647.446 747.98 646.923 747.98C646.4 747.98 645.978 747.83 645.655 747.529C645.34 747.229 645.183 746.842 645.183 746.369ZM656.322 761.215C654.618 761.215 653.229 760.692 652.154 759.646C651.087 758.601 650.554 757.208 650.554 755.468V755.167C650.554 754 650.779 752.958 651.23 752.041C651.682 751.117 652.319 750.408 653.143 749.914C653.973 749.413 654.919 749.162 655.979 749.162C657.568 749.162 658.818 749.663 659.728 750.666C660.644 751.669 661.103 753.09 661.103 754.931V756.198H653.701C653.801 756.957 654.102 757.566 654.604 758.024C655.112 758.483 655.753 758.712 656.526 758.712C657.722 758.712 658.657 758.279 659.33 757.412L660.855 759.12C660.39 759.779 659.76 760.295 658.965 760.667C658.17 761.032 657.289 761.215 656.322 761.215ZM655.968 751.676C655.352 751.676 654.851 751.883 654.464 752.299C654.084 752.714 653.841 753.309 653.733 754.082H658.052V753.835C658.037 753.147 657.851 752.618 657.493 752.245C657.135 751.866 656.627 751.676 655.968 751.676ZM667.709 758.712C668.282 758.712 668.747 758.554 669.105 758.239C669.464 757.924 669.65 757.505 669.664 756.982H672.575C672.568 757.77 672.353 758.493 671.931 759.152C671.508 759.804 670.928 760.312 670.19 760.678C669.46 761.036 668.651 761.215 667.763 761.215C666.101 761.215 664.791 760.688 663.831 759.636C662.871 758.576 662.392 757.115 662.392 755.253V755.049C662.392 753.258 662.868 751.83 663.82 750.763C664.773 749.696 666.08 749.162 667.741 749.162C669.195 749.162 670.359 749.577 671.232 750.408C672.113 751.232 672.561 752.331 672.575 753.706H669.664C669.65 753.104 669.464 752.618 669.105 752.245C668.747 751.866 668.275 751.676 667.688 751.676C666.964 751.676 666.416 751.941 666.044 752.471C665.679 752.993 665.496 753.846 665.496 755.027V755.35C665.496 756.546 665.679 757.405 666.044 757.928C666.409 758.451 666.964 758.712 667.709 758.712ZM678.064 746.52V749.377H680.052V751.654H678.064V757.455C678.064 757.885 678.147 758.193 678.312 758.379C678.476 758.565 678.791 758.658 679.257 758.658C679.601 758.658 679.905 758.633 680.17 758.583V760.936C679.561 761.122 678.935 761.215 678.29 761.215C676.113 761.215 675.003 760.116 674.96 757.917V751.654H673.263V749.377H674.96V746.52H678.064ZM688.076 757.788C688.076 757.409 687.886 757.111 687.507 756.896C687.134 756.674 686.533 756.478 685.702 756.306C682.938 755.726 681.556 754.551 681.556 752.782C681.556 751.751 681.982 750.892 682.834 750.204C683.693 749.509 684.814 749.162 686.196 749.162C687.672 749.162 688.85 749.509 689.73 750.204C690.618 750.899 691.062 751.801 691.062 752.911H687.958C687.958 752.467 687.815 752.102 687.528 751.815C687.242 751.522 686.794 751.375 686.186 751.375C685.663 751.375 685.258 751.493 684.972 751.729C684.685 751.966 684.542 752.267 684.542 752.632C684.542 752.976 684.703 753.255 685.025 753.47C685.355 753.677 685.906 753.86 686.68 754.018C687.453 754.168 688.105 754.34 688.635 754.533C690.275 755.135 691.095 756.177 691.095 757.659C691.095 758.719 690.64 759.578 689.73 760.237C688.821 760.889 687.646 761.215 686.207 761.215C685.233 761.215 684.367 761.043 683.607 760.699C682.855 760.348 682.265 759.872 681.835 759.271C681.405 758.662 681.19 758.007 681.19 757.305H684.134C684.162 757.856 684.367 758.279 684.746 758.572C685.126 758.866 685.634 759.013 686.271 759.013C686.866 759.013 687.313 758.902 687.614 758.68C687.922 758.451 688.076 758.153 688.076 757.788Z" fill="black"/>
<path fill-rule="evenodd" clip-rule="evenodd" d="M1123.05 851H463V849H1123.01C1123 849.166 1123 849.333 1123 849.5C1123 850.004 1123.02 850.504 1123.05 851ZM1169.95 851C1169.98 850.504 1170 850.004 1170 849.5C1170 849.333 1170 849.166 1169.99 849H1213V851H1169.95Z" fill="white"/>
<path d="M486 826L462 850L486 874" stroke="white" stroke-width="2"/>
<circle r="19.5" transform="matrix(-1 0 0 1 1146.5 849.5)" stroke="white" stroke-width="2"/>
<path d="M1156 850L1150 856L1138 844" stroke="white" stroke-width="2"/>
<rect width="259" height="86" transform="translate(934 804)" fill="white"/>
<path d="M999.047 848.489V854H995.824V838.359H1001.93C1003.1 838.359 1004.13 838.574 1005.02 839.004C1005.91 839.434 1006.6 840.046 1007.08 840.841C1007.56 841.629 1007.8 842.527 1007.8 843.537C1007.8 845.07 1007.28 846.28 1006.22 847.168C1005.18 848.049 1003.73 848.489 1001.87 848.489H999.047ZM999.047 845.879H1001.93C1002.78 845.879 1003.43 845.678 1003.87 845.277C1004.32 844.876 1004.55 844.303 1004.55 843.559C1004.55 842.792 1004.32 842.173 1003.87 841.7C1003.42 841.228 1002.8 840.984 1002 840.97H999.047V845.879ZM1016.35 845.288C1015.93 845.231 1015.56 845.202 1015.24 845.202C1014.06 845.202 1013.29 845.6 1012.93 846.395V854H1009.82V842.377H1012.75L1012.84 843.763C1013.46 842.696 1014.33 842.162 1015.43 842.162C1015.77 842.162 1016.09 842.209 1016.4 842.302L1016.35 845.288ZM1016.99 848.081C1016.99 846.928 1017.21 845.9 1017.65 844.998C1018.1 844.096 1018.73 843.397 1019.56 842.903C1020.4 842.409 1021.37 842.162 1022.48 842.162C1024.04 842.162 1025.32 842.642 1026.31 843.602C1027.31 844.561 1027.86 845.865 1027.98 847.512L1028 848.307C1028 850.09 1027.5 851.522 1026.5 852.604C1025.51 853.678 1024.17 854.215 1022.5 854.215C1020.82 854.215 1019.48 853.678 1018.48 852.604C1017.48 851.529 1016.99 850.068 1016.99 848.221V848.081ZM1020.09 848.307C1020.09 849.41 1020.3 850.255 1020.71 850.842C1021.13 851.422 1021.72 851.712 1022.5 851.712C1023.25 851.712 1023.84 851.425 1024.26 850.853C1024.68 850.272 1024.89 849.349 1024.89 848.081C1024.89 847 1024.68 846.162 1024.26 845.567C1023.84 844.973 1023.24 844.676 1022.48 844.676C1021.72 844.676 1021.13 844.973 1020.71 845.567C1020.3 846.155 1020.09 847.068 1020.09 848.307ZM1033.2 842.377V854.634C1033.2 855.916 1032.86 856.911 1032.18 857.62C1031.5 858.336 1030.51 858.694 1029.23 858.694C1028.7 858.694 1028.18 858.633 1027.7 858.512V856.052C1028.07 856.116 1028.39 856.148 1028.67 856.148C1029.61 856.148 1030.08 855.651 1030.08 854.655V842.377H1033.2ZM1029.83 839.369C1029.83 838.904 1029.99 838.521 1030.3 838.22C1030.61 837.919 1031.04 837.769 1031.57 837.769C1032.11 837.769 1032.53 837.919 1032.84 838.22C1033.16 838.521 1033.31 838.904 1033.31 839.369C1033.31 839.842 1033.15 840.229 1032.83 840.529C1032.52 840.83 1032.1 840.98 1031.57 840.98C1031.05 840.98 1030.63 840.83 1030.31 840.529C1029.99 840.229 1029.83 839.842 1029.83 839.369ZM1040.97 854.215C1039.27 854.215 1037.88 853.692 1036.81 852.646C1035.74 851.601 1035.21 850.208 1035.21 848.468V848.167C1035.21 847 1035.43 845.958 1035.88 845.041C1036.33 844.117 1036.97 843.408 1037.79 842.914C1038.62 842.413 1039.57 842.162 1040.63 842.162C1042.22 842.162 1043.47 842.663 1044.38 843.666C1045.3 844.669 1045.75 846.09 1045.75 847.931V849.198H1038.35C1038.45 849.957 1038.75 850.566 1039.25 851.024C1039.76 851.483 1040.4 851.712 1041.18 851.712C1042.37 851.712 1043.31 851.279 1043.98 850.412L1045.51 852.12C1045.04 852.779 1044.41 853.295 1043.62 853.667C1042.82 854.032 1041.94 854.215 1040.97 854.215ZM1040.62 844.676C1040 844.676 1039.5 844.883 1039.12 845.299C1038.74 845.714 1038.49 846.309 1038.38 847.082H1042.7V846.835C1042.69 846.147 1042.5 845.618 1042.14 845.245C1041.79 844.866 1041.28 844.676 1040.62 844.676ZM1052.36 851.712C1052.93 851.712 1053.4 851.554 1053.76 851.239C1054.11 850.924 1054.3 850.505 1054.32 849.982H1057.23C1057.22 850.77 1057 851.493 1056.58 852.152C1056.16 852.804 1055.58 853.312 1054.84 853.678C1054.11 854.036 1053.3 854.215 1052.41 854.215C1050.75 854.215 1049.44 853.688 1048.48 852.636C1047.52 851.576 1047.04 850.115 1047.04 848.253V848.049C1047.04 846.258 1047.52 844.83 1048.47 843.763C1049.42 842.696 1050.73 842.162 1052.39 842.162C1053.85 842.162 1055.01 842.577 1055.88 843.408C1056.76 844.232 1057.21 845.331 1057.23 846.706H1054.32C1054.3 846.104 1054.11 845.618 1053.76 845.245C1053.4 844.866 1052.93 844.676 1052.34 844.676C1051.62 844.676 1051.07 844.941 1050.7 845.471C1050.33 845.993 1050.15 846.846 1050.15 848.027V848.35C1050.15 849.546 1050.33 850.405 1050.7 850.928C1051.06 851.451 1051.62 851.712 1052.36 851.712ZM1062.72 839.52V842.377H1064.7V844.654H1062.72V850.455C1062.72 850.885 1062.8 851.193 1062.96 851.379C1063.13 851.565 1063.44 851.658 1063.91 851.658C1064.25 851.658 1064.56 851.633 1064.82 851.583V853.936C1064.21 854.122 1063.59 854.215 1062.94 854.215C1060.76 854.215 1059.65 853.116 1059.61 850.917V844.654H1057.91V842.377H1059.61V839.52H1062.72ZM1076.33 838.359L1080.34 849.703L1084.34 838.359H1088.57V854H1085.34V849.725L1085.66 842.345L1081.44 854H1079.23L1075.02 842.355L1075.34 849.725V854H1072.12V838.359H1076.33ZM1090.7 848.081C1090.7 846.928 1090.92 845.9 1091.37 844.998C1091.81 844.096 1092.45 843.397 1093.28 842.903C1094.12 842.409 1095.09 842.162 1096.19 842.162C1097.76 842.162 1099.04 842.642 1100.02 843.602C1101.02 844.561 1101.57 845.865 1101.69 847.512L1101.71 848.307C1101.71 850.09 1101.21 851.522 1100.22 852.604C1099.22 853.678 1097.89 854.215 1096.21 854.215C1094.53 854.215 1093.19 853.678 1092.19 852.604C1091.2 851.529 1090.7 850.068 1090.7 848.221V848.081ZM1093.8 848.307C1093.8 849.41 1094.01 850.255 1094.43 850.842C1094.84 851.422 1095.44 851.712 1096.21 851.712C1096.96 851.712 1097.55 851.425 1097.97 850.853C1098.39 850.272 1098.61 849.349 1098.61 848.081C1098.61 847 1098.39 846.162 1097.97 845.567C1097.55 844.973 1096.95 844.676 1096.19 844.676C1095.43 844.676 1094.84 844.973 1094.43 845.567C1094.01 846.155 1093.8 847.068 1093.8 848.307ZM1103.14 848.103C1103.14 846.291 1103.54 844.848 1104.35 843.773C1105.17 842.699 1106.28 842.162 1107.69 842.162C1108.82 842.162 1109.76 842.585 1110.5 843.43V837.5H1113.61V854H1110.81L1110.66 852.765C1109.88 853.731 1108.89 854.215 1107.67 854.215C1106.3 854.215 1105.2 853.678 1104.37 852.604C1103.55 851.522 1103.14 850.022 1103.14 848.103ZM1106.24 848.328C1106.24 849.417 1106.43 850.251 1106.81 850.831C1107.19 851.411 1107.74 851.701 1108.47 851.701C1109.43 851.701 1110.1 851.297 1110.5 850.487V845.9C1110.11 845.091 1109.44 844.687 1108.49 844.687C1106.99 844.687 1106.24 845.9 1106.24 848.328ZM1121.37 854.215C1119.66 854.215 1118.27 853.692 1117.2 852.646C1116.13 851.601 1115.6 850.208 1115.6 848.468V848.167C1115.6 847 1115.83 845.958 1116.28 845.041C1116.73 844.117 1117.36 843.408 1118.19 842.914C1119.02 842.413 1119.96 842.162 1121.02 842.162C1122.61 842.162 1123.86 842.663 1124.77 843.666C1125.69 844.669 1126.15 846.09 1126.15 847.931V849.198H1118.75C1118.85 849.957 1119.15 850.566 1119.65 851.024C1120.16 851.483 1120.8 851.712 1121.57 851.712C1122.77 851.712 1123.7 851.279 1124.38 850.412L1125.9 852.12C1125.44 852.779 1124.81 853.295 1124.01 853.667C1123.22 854.032 1122.33 854.215 1121.37 854.215ZM1121.01 844.676C1120.4 844.676 1119.9 844.883 1119.51 845.299C1119.13 845.714 1118.89 846.309 1118.78 847.082H1123.1V846.835C1123.08 846.147 1122.9 845.618 1122.54 845.245C1122.18 844.866 1121.67 844.676 1121.01 844.676ZM1131.2 854H1128.08V837.5H1131.2V854Z" fill="black"/>
<path d="M773.889 161.162H755.988V180H750.363V137.344H776.789V141.973H755.988V156.562H773.889V161.162ZM797.238 153.164C796.418 153.027 795.529 152.959 794.572 152.959C791.018 152.959 788.605 154.473 787.336 157.5V180H781.916V148.301H787.189L787.277 151.963C789.055 149.131 791.574 147.715 794.836 147.715C795.891 147.715 796.691 147.852 797.238 148.125V153.164ZM800.227 163.857C800.227 160.752 800.832 157.959 802.043 155.479C803.273 152.998 804.973 151.084 807.141 149.736C809.328 148.389 811.818 147.715 814.611 147.715C818.928 147.715 822.414 149.209 825.07 152.197C827.746 155.186 829.084 159.16 829.084 164.121V164.502C829.084 167.588 828.488 170.361 827.297 172.822C826.125 175.264 824.436 177.168 822.229 178.535C820.041 179.902 817.521 180.586 814.67 180.586C810.373 180.586 806.887 179.092 804.211 176.104C801.555 173.115 800.227 169.16 800.227 164.238V163.857ZM805.676 164.502C805.676 168.018 806.486 170.84 808.107 172.969C809.748 175.098 811.936 176.162 814.67 176.162C817.424 176.162 819.611 175.088 821.232 172.939C822.854 170.771 823.664 167.744 823.664 163.857C823.664 160.381 822.834 157.568 821.174 155.42C819.533 153.252 817.346 152.168 814.611 152.168C811.936 152.168 809.777 153.232 808.137 155.361C806.496 157.49 805.676 160.537 805.676 164.502ZM841.008 148.301L841.184 152.285C843.605 149.238 846.77 147.715 850.676 147.715C857.375 147.715 860.754 151.494 860.812 159.053V180H855.393V159.023C855.373 156.738 854.846 155.049 853.811 153.955C852.795 152.861 851.203 152.314 849.035 152.314C847.277 152.314 845.734 152.783 844.406 153.721C843.078 154.658 842.043 155.889 841.301 157.412V180H835.881V148.301H841.008ZM876.34 140.625V148.301H882.258V152.49H876.34V172.148C876.34 173.418 876.604 174.375 877.131 175.02C877.658 175.645 878.557 175.957 879.826 175.957C880.451 175.957 881.311 175.84 882.404 175.605V180C880.979 180.391 879.592 180.586 878.244 180.586C875.822 180.586 873.996 179.854 872.766 178.389C871.535 176.924 870.92 174.844 870.92 172.148V152.49H865.148V148.301H870.92V140.625H876.34ZM913.576 160.283H895.09V175.4H916.564V180H889.465V137.344H916.271V141.973H895.09V155.684H913.576V160.283ZM927.844 148.301L928.02 152.285C930.441 149.238 933.605 147.715 937.512 147.715C944.211 147.715 947.59 151.494 947.648 159.053V180H942.229V159.023C942.209 156.738 941.682 155.049 940.646 153.955C939.631 152.861 938.039 152.314 935.871 152.314C934.113 152.314 932.57 152.783 931.242 153.721C929.914 154.658 928.879 155.889 928.137 157.412V180H922.717V148.301H927.844ZM954.504 163.887C954.504 159.023 955.656 155.117 957.961 152.168C960.266 149.199 963.283 147.715 967.014 147.715C970.725 147.715 973.664 148.984 975.832 151.523V135H981.252V180H976.271L976.008 176.602C973.84 179.258 970.822 180.586 966.955 180.586C963.283 180.586 960.285 179.082 957.961 176.074C955.656 173.066 954.504 169.141 954.504 164.297V163.887ZM959.924 164.502C959.924 168.096 960.666 170.908 962.15 172.939C963.635 174.971 965.686 175.986 968.303 175.986C971.74 175.986 974.25 174.443 975.832 171.357V156.797C974.211 153.809 971.721 152.314 968.361 152.314C965.705 152.314 963.635 153.34 962.15 155.391C960.666 157.441 959.924 160.479 959.924 164.502Z" fill="white"/>
<rect width="126" height="27" transform="translate(512 696)" fill="black"/>
<path d="M525.594 703.625L529.312 712.906L533.031 703.625H534.977V715H533.477V710.57L533.617 705.789L529.883 715H528.734L525.008 705.812L525.156 710.57V715H523.656V703.625H525.594ZM537.016 710.695C537.016 709.867 537.177 709.122 537.5 708.461C537.828 707.799 538.281 707.289 538.859 706.93C539.443 706.57 540.107 706.391 540.852 706.391C542.003 706.391 542.932 706.789 543.641 707.586C544.354 708.383 544.711 709.443 544.711 710.766V710.867C544.711 711.69 544.552 712.43 544.234 713.086C543.922 713.737 543.471 714.245 542.883 714.609C542.299 714.974 541.628 715.156 540.867 715.156C539.721 715.156 538.792 714.758 538.078 713.961C537.37 713.164 537.016 712.109 537.016 710.797V710.695ZM538.469 710.867C538.469 711.805 538.685 712.557 539.117 713.125C539.555 713.693 540.138 713.977 540.867 713.977C541.602 713.977 542.185 713.69 542.617 713.117C543.049 712.539 543.266 711.732 543.266 710.695C543.266 709.768 543.044 709.018 542.602 708.445C542.164 707.867 541.581 707.578 540.852 707.578C540.138 707.578 539.562 707.862 539.125 708.43C538.688 708.997 538.469 709.81 538.469 710.867ZM549.914 713.977C550.43 713.977 550.88 713.82 551.266 713.508C551.651 713.195 551.865 712.805 551.906 712.336H553.273C553.247 712.82 553.081 713.281 552.773 713.719C552.466 714.156 552.055 714.505 551.539 714.766C551.029 715.026 550.487 715.156 549.914 715.156C548.763 715.156 547.846 714.773 547.164 714.008C546.487 713.237 546.148 712.185 546.148 710.852V710.609C546.148 709.786 546.299 709.055 546.602 708.414C546.904 707.773 547.336 707.276 547.898 706.922C548.466 706.568 549.135 706.391 549.906 706.391C550.854 706.391 551.641 706.674 552.266 707.242C552.896 707.81 553.232 708.547 553.273 709.453H551.906C551.865 708.906 551.656 708.458 551.281 708.109C550.911 707.755 550.453 707.578 549.906 707.578C549.172 707.578 548.602 707.844 548.195 708.375C547.794 708.901 547.594 709.664 547.594 710.664V710.938C547.594 711.911 547.794 712.661 548.195 713.188C548.596 713.714 549.169 713.977 549.914 713.977ZM557.258 711.086L556.352 712.031V715H554.906V703H556.352V710.258L557.125 709.328L559.758 706.547H561.516L558.227 710.078L561.898 715H560.203L557.258 711.086ZM573.477 709.977H568.703V715H567.203V703.625H574.25V704.859H568.703V708.75H573.477V709.977ZM580.867 714.164C580.305 714.826 579.479 715.156 578.391 715.156C577.49 715.156 576.802 714.896 576.328 714.375C575.859 713.849 575.622 713.073 575.617 712.047V706.547H577.062V712.008C577.062 713.289 577.583 713.93 578.625 713.93C579.729 713.93 580.464 713.518 580.828 712.695V706.547H582.273V715H580.898L580.867 714.164ZM585.844 706.547L585.891 707.609C586.536 706.797 587.38 706.391 588.422 706.391C590.208 706.391 591.109 707.398 591.125 709.414V715H589.68V709.406C589.674 708.797 589.534 708.346 589.258 708.055C588.987 707.763 588.562 707.617 587.984 707.617C587.516 707.617 587.104 707.742 586.75 707.992C586.396 708.242 586.12 708.57 585.922 708.977V715H584.477V706.547H585.844ZM596.695 713.977C597.211 713.977 597.661 713.82 598.047 713.508C598.432 713.195 598.646 712.805 598.688 712.336H600.055C600.029 712.82 599.862 713.281 599.555 713.719C599.247 714.156 598.836 714.505 598.32 714.766C597.81 715.026 597.268 715.156 596.695 715.156C595.544 715.156 594.628 714.773 593.945 714.008C593.268 713.237 592.93 712.185 592.93 710.852V710.609C592.93 709.786 593.081 709.055 593.383 708.414C593.685 707.773 594.117 707.276 594.68 706.922C595.247 706.568 595.917 706.391 596.688 706.391C597.635 706.391 598.422 706.674 599.047 707.242C599.677 707.81 600.013 708.547 600.055 709.453H598.688C598.646 708.906 598.438 708.458 598.062 708.109C597.693 707.755 597.234 707.578 596.688 707.578C595.953 707.578 595.383 707.844 594.977 708.375C594.576 708.901 594.375 709.664 594.375 710.664V710.938C594.375 711.911 594.576 712.661 594.977 713.188C595.378 713.714 595.951 713.977 596.695 713.977ZM603.641 704.5V706.547H605.219V707.664H603.641V712.906C603.641 713.245 603.711 713.5 603.852 713.672C603.992 713.839 604.232 713.922 604.57 713.922C604.737 713.922 604.966 713.891 605.258 713.828V715C604.878 715.104 604.508 715.156 604.148 715.156C603.503 715.156 603.016 714.961 602.688 714.57C602.359 714.18 602.195 713.625 602.195 712.906V707.664H600.656V706.547H602.195V704.5H603.641ZM608.484 715H607.039V706.547H608.484V715ZM606.922 704.305C606.922 704.07 606.992 703.872 607.133 703.711C607.279 703.549 607.492 703.469 607.773 703.469C608.055 703.469 608.268 703.549 608.414 703.711C608.56 703.872 608.633 704.07 608.633 704.305C608.633 704.539 608.56 704.734 608.414 704.891C608.268 705.047 608.055 705.125 607.773 705.125C607.492 705.125 607.279 705.047 607.133 704.891C606.992 704.734 606.922 704.539 606.922 704.305ZM610.422 710.695C610.422 709.867 610.583 709.122 610.906 708.461C611.234 707.799 611.688 707.289 612.266 706.93C612.849 706.57 613.513 706.391 614.258 706.391C615.409 706.391 616.339 706.789 617.047 707.586C617.76 708.383 618.117 709.443 618.117 710.766V710.867C618.117 711.69 617.958 712.43 617.641 713.086C617.328 713.737 616.878 714.245 616.289 714.609C615.706 714.974 615.034 715.156 614.273 715.156C613.128 715.156 612.198 714.758 611.484 713.961C610.776 713.164 610.422 712.109 610.422 710.797V710.695ZM611.875 710.867C611.875 711.805 612.091 712.557 612.523 713.125C612.961 713.693 613.544 713.977 614.273 713.977C615.008 713.977 615.591 713.69 616.023 713.117C616.456 712.539 616.672 711.732 616.672 710.695C616.672 709.768 616.451 709.018 616.008 708.445C615.57 707.867 614.987 707.578 614.258 707.578C613.544 707.578 612.969 707.862 612.531 708.43C612.094 708.997 611.875 709.81 611.875 710.867ZM621.297 706.547L621.344 707.609C621.99 706.797 622.833 706.391 623.875 706.391C625.661 706.391 626.562 707.398 626.578 709.414V715H625.133V709.406C625.128 708.797 624.987 708.346 624.711 708.055C624.44 707.763 624.016 707.617 623.438 707.617C622.969 707.617 622.557 707.742 622.203 707.992C621.849 708.242 621.573 708.57 621.375 708.977V715H619.93V706.547H621.297Z" fill="white"/>
<rect width="126" height="27" transform="translate(512 317)" fill="black"/>
<path d="M525.594 324.625L529.312 333.906L533.031 324.625H534.977V336H533.477V331.57L533.617 326.789L529.883 336H528.734L525.008 326.812L525.156 331.57V336H523.656V324.625H525.594ZM537.016 331.695C537.016 330.867 537.177 330.122 537.5 329.461C537.828 328.799 538.281 328.289 538.859 327.93C539.443 327.57 540.107 327.391 540.852 327.391C542.003 327.391 542.932 327.789 543.641 328.586C544.354 329.383 544.711 330.443 544.711 331.766V331.867C544.711 332.69 544.552 333.43 544.234 334.086C543.922 334.737 543.471 335.245 542.883 335.609C542.299 335.974 541.628 336.156 540.867 336.156C539.721 336.156 538.792 335.758 538.078 334.961C537.37 334.164 537.016 333.109 537.016 331.797V331.695ZM538.469 331.867C538.469 332.805 538.685 333.557 539.117 334.125C539.555 334.693 540.138 334.977 540.867 334.977C541.602 334.977 542.185 334.69 542.617 334.117C543.049 333.539 543.266 332.732 543.266 331.695C543.266 330.768 543.044 330.018 542.602 329.445C542.164 328.867 541.581 328.578 540.852 328.578C540.138 328.578 539.562 328.862 539.125 329.43C538.688 329.997 538.469 330.81 538.469 331.867ZM549.914 334.977C550.43 334.977 550.88 334.82 551.266 334.508C551.651 334.195 551.865 333.805 551.906 333.336H553.273C553.247 333.82 553.081 334.281 552.773 334.719C552.466 335.156 552.055 335.505 551.539 335.766C551.029 336.026 550.487 336.156 549.914 336.156C548.763 336.156 547.846 335.773 547.164 335.008C546.487 334.237 546.148 333.185 546.148 331.852V331.609C546.148 330.786 546.299 330.055 546.602 329.414C546.904 328.773 547.336 328.276 547.898 327.922C548.466 327.568 549.135 327.391 549.906 327.391C550.854 327.391 551.641 327.674 552.266 328.242C552.896 328.81 553.232 329.547 553.273 330.453H551.906C551.865 329.906 551.656 329.458 551.281 329.109C550.911 328.755 550.453 328.578 549.906 328.578C549.172 328.578 548.602 328.844 548.195 329.375C547.794 329.901 547.594 330.664 547.594 331.664V331.938C547.594 332.911 547.794 333.661 548.195 334.188C548.596 334.714 549.169 334.977 549.914 334.977ZM557.258 332.086L556.352 333.031V336H554.906V324H556.352V331.258L557.125 330.328L559.758 327.547H561.516L558.227 331.078L561.898 336H560.203L557.258 332.086ZM573.477 330.977H568.703V336H567.203V324.625H574.25V325.859H568.703V329.75H573.477V330.977ZM580.867 335.164C580.305 335.826 579.479 336.156 578.391 336.156C577.49 336.156 576.802 335.896 576.328 335.375C575.859 334.849 575.622 334.073 575.617 333.047V327.547H577.062V333.008C577.062 334.289 577.583 334.93 578.625 334.93C579.729 334.93 580.464 334.518 580.828 333.695V327.547H582.273V336H580.898L580.867 335.164ZM585.844 327.547L585.891 328.609C586.536 327.797 587.38 327.391 588.422 327.391C590.208 327.391 591.109 328.398 591.125 330.414V336H589.68V330.406C589.674 329.797 589.534 329.346 589.258 329.055C588.987 328.763 588.562 328.617 587.984 328.617C587.516 328.617 587.104 328.742 586.75 328.992C586.396 329.242 586.12 329.57 585.922 329.977V336H584.477V327.547H585.844ZM596.695 334.977C597.211 334.977 597.661 334.82 598.047 334.508C598.432 334.195 598.646 333.805 598.688 333.336H600.055C600.029 333.82 599.862 334.281 599.555 334.719C599.247 335.156 598.836 335.505 598.32 335.766C597.81 336.026 597.268 336.156 596.695 336.156C595.544 336.156 594.628 335.773 593.945 335.008C593.268 334.237 592.93 333.185 592.93 331.852V331.609C592.93 330.786 593.081 330.055 593.383 329.414C593.685 328.773 594.117 328.276 594.68 327.922C595.247 327.568 595.917 327.391 596.688 327.391C597.635 327.391 598.422 327.674 599.047 328.242C599.677 328.81 600.013 329.547 600.055 330.453H598.688C598.646 329.906 598.438 329.458 598.062 329.109C597.693 328.755 597.234 328.578 596.688 328.578C595.953 328.578 595.383 328.844 594.977 329.375C594.576 329.901 594.375 330.664 594.375 331.664V331.938C594.375 332.911 594.576 333.661 594.977 334.188C595.378 334.714 595.951 334.977 596.695 334.977ZM603.641 325.5V327.547H605.219V328.664H603.641V333.906C603.641 334.245 603.711 334.5 603.852 334.672C603.992 334.839 604.232 334.922 604.57 334.922C604.737 334.922 604.966 334.891 605.258 334.828V336C604.878 336.104 604.508 336.156 604.148 336.156C603.503 336.156 603.016 335.961 602.688 335.57C602.359 335.18 602.195 334.625 602.195 333.906V328.664H600.656V327.547H602.195V325.5H603.641ZM608.484 336H607.039V327.547H608.484V336ZM606.922 325.305C606.922 325.07 606.992 324.872 607.133 324.711C607.279 324.549 607.492 324.469 607.773 324.469C608.055 324.469 608.268 324.549 608.414 324.711C608.56 324.872 608.633 325.07 608.633 325.305C608.633 325.539 608.56 325.734 608.414 325.891C608.268 326.047 608.055 326.125 607.773 326.125C607.492 326.125 607.279 326.047 607.133 325.891C606.992 325.734 606.922 325.539 606.922 325.305ZM610.422 331.695C610.422 330.867 610.583 330.122 610.906 329.461C611.234 328.799 611.688 328.289 612.266 327.93C612.849 327.57 613.513 327.391 614.258 327.391C615.409 327.391 616.339 327.789 617.047 328.586C617.76 329.383 618.117 330.443 618.117 331.766V331.867C618.117 332.69 617.958 333.43 617.641 334.086C617.328 334.737 616.878 335.245 616.289 335.609C615.706 335.974 615.034 336.156 614.273 336.156C613.128 336.156 612.198 335.758 611.484 334.961C610.776 334.164 610.422 333.109 610.422 331.797V331.695ZM611.875 331.867C611.875 332.805 612.091 333.557 612.523 334.125C612.961 334.693 613.544 334.977 614.273 334.977C615.008 334.977 615.591 334.69 616.023 334.117C616.456 333.539 616.672 332.732 616.672 331.695C616.672 330.768 616.451 330.018 616.008 329.445C615.57 328.867 614.987 328.578 614.258 328.578C613.544 328.578 612.969 328.862 612.531 329.43C612.094 329.997 611.875 330.81 611.875 331.867ZM621.297 327.547L621.344 328.609C621.99 327.797 622.833 327.391 623.875 327.391C625.661 327.391 626.562 328.398 626.578 330.414V336H625.133V330.406C625.128 329.797 624.987 329.346 624.711 329.055C624.44 328.763 624.016 328.617 623.438 328.617C622.969 328.617 622.557 328.742 622.203 328.992C621.849 329.242 621.573 329.57 621.375 329.977V336H619.93V327.547H621.297Z" fill="white"/>
</svg>
