<svg width="1673" height="1114" viewBox="0 0 1673 1114" fill="none" xmlns="http://www.w3.org/2000/svg">
<rect width="1673" height="1114" fill="#E5E5E5"/>
<rect width="1673" height="1114" fill="#003245"/>
<rect x="78.7579" y="301.758" width="362.484" height="163.484" fill="black" stroke="white" stroke-width="3.51579"/>
<path d="M195.607 385.395H184.069V397.538H180.443V370.043H197.476V373.027H184.069V382.431H195.607V385.395ZM210.657 380.24C210.128 380.152 209.555 380.108 208.939 380.108C206.647 380.108 205.093 381.084 204.274 383.035V397.538H200.781V377.105H204.18L204.237 379.466C205.382 377.64 207.006 376.728 209.109 376.728C209.788 376.728 210.305 376.816 210.657 376.992V380.24ZM212.583 387.133C212.583 385.131 212.973 383.331 213.754 381.732C214.547 380.133 215.642 378.899 217.04 378.031C218.45 377.162 220.055 376.728 221.855 376.728C224.637 376.728 226.884 377.691 228.596 379.617C230.321 381.543 231.184 384.105 231.184 387.303V387.548C231.184 389.537 230.8 391.325 230.032 392.911C229.276 394.485 228.187 395.712 226.765 396.593C225.355 397.475 223.731 397.915 221.893 397.915C219.123 397.915 216.876 396.952 215.151 395.026C213.439 393.1 212.583 390.551 212.583 387.378V387.133ZM216.096 387.548C216.096 389.814 216.618 391.633 217.663 393.005C218.72 394.378 220.13 395.064 221.893 395.064C223.668 395.064 225.078 394.371 226.123 392.987C227.168 391.589 227.69 389.638 227.69 387.133C227.69 384.892 227.155 383.079 226.085 381.694C225.027 380.297 223.617 379.598 221.855 379.598C220.13 379.598 218.739 380.284 217.682 381.656C216.624 383.029 216.096 384.992 216.096 387.548ZM238.869 377.105L238.982 379.674C240.544 377.71 242.583 376.728 245.101 376.728C249.419 376.728 251.597 379.164 251.635 384.036V397.538H248.141V384.017C248.128 382.544 247.789 381.455 247.121 380.75C246.467 380.045 245.441 379.692 244.043 379.692C242.91 379.692 241.916 379.995 241.06 380.599C240.204 381.203 239.536 381.996 239.058 382.978V397.538H235.565V377.105H238.869ZM261.643 372.158V377.105H265.457V379.806H261.643V392.477C261.643 393.295 261.813 393.912 262.153 394.327C262.493 394.73 263.072 394.932 263.89 394.932C264.293 394.932 264.847 394.856 265.552 394.705V397.538C264.633 397.789 263.739 397.915 262.87 397.915C261.309 397.915 260.132 397.443 259.339 396.499C258.546 395.555 258.149 394.214 258.149 392.477V379.806H254.429V377.105H258.149V372.158H261.643ZM276.825 387.284H267.61V384.432H276.825V387.284ZM296.332 384.829H284.416V394.573H298.258V397.538H280.791V370.043H298.069V373.027H284.416V381.864H296.332V384.829ZM305.528 377.105L305.642 379.674C307.203 377.71 309.242 376.728 311.76 376.728C316.078 376.728 318.256 379.164 318.294 384.036V397.538H314.8V384.017C314.788 382.544 314.448 381.455 313.781 380.75C313.126 380.045 312.1 379.692 310.703 379.692C309.569 379.692 308.575 379.995 307.719 380.599C306.863 381.203 306.196 381.996 305.717 382.978V397.538H302.224V377.105H305.528ZM322.712 387.152C322.712 384.017 323.455 381.499 324.941 379.598C326.426 377.685 328.371 376.728 330.776 376.728C333.168 376.728 335.062 377.546 336.46 379.183V368.532H339.953V397.538H336.743L336.573 395.347C335.176 397.059 333.231 397.915 330.738 397.915C328.371 397.915 326.439 396.946 324.941 395.007C323.455 393.068 322.712 390.538 322.712 387.416V387.152ZM326.206 387.548C326.206 389.864 326.684 391.677 327.641 392.987C328.598 394.296 329.92 394.95 331.607 394.95C333.822 394.95 335.44 393.956 336.46 391.967V382.582C335.415 380.656 333.81 379.692 331.644 379.692C329.932 379.692 328.598 380.353 327.641 381.675C326.684 382.997 326.206 384.955 326.206 387.548Z" fill="white"/>
<path d="M418.39 314.063L428.937 324.611M418.39 324.611L428.937 314.063" stroke="white" stroke-width="3.51579"/>
<rect x="89.3053" y="285.937" width="104.221" height="39.0632" fill="black"/>
<path d="M121.145 307.478H118.683V312.968H115.593V297.971H121.166C122.937 297.971 124.304 298.366 125.265 299.156C126.226 299.946 126.707 301.061 126.707 302.503C126.707 303.527 126.484 304.382 126.038 305.068C125.598 305.748 124.929 306.29 124.029 306.696L127.274 312.824V312.968H123.957L121.145 307.478ZM118.683 304.975H121.176C121.952 304.975 122.553 304.78 122.978 304.388C123.404 303.99 123.617 303.444 123.617 302.751C123.617 302.043 123.415 301.487 123.009 301.082C122.611 300.677 121.997 300.474 121.166 300.474H118.683V304.975ZM134 313.174C132.365 313.174 131.033 312.673 130.003 311.671C128.98 310.668 128.468 309.332 128.468 307.664V307.375C128.468 306.256 128.685 305.257 129.117 304.378C129.55 303.492 130.161 302.812 130.951 302.339C131.747 301.858 132.654 301.618 133.67 301.618C135.194 301.618 136.393 302.098 137.265 303.06C138.144 304.021 138.583 305.384 138.583 307.149V308.364H131.486C131.583 309.092 131.871 309.676 132.352 310.115C132.839 310.555 133.454 310.774 134.195 310.774C135.342 310.774 136.238 310.359 136.884 309.528L138.346 311.166C137.9 311.798 137.296 312.292 136.533 312.649C135.771 312.999 134.927 313.174 134 313.174ZM133.66 304.028C133.069 304.028 132.589 304.227 132.218 304.625C131.854 305.024 131.62 305.593 131.517 306.335H135.658V306.098C135.644 305.439 135.466 304.931 135.122 304.574C134.779 304.21 134.291 304.028 133.66 304.028ZM146.741 312.968C146.604 312.701 146.504 312.368 146.442 311.969C145.721 312.773 144.784 313.174 143.63 313.174C142.538 313.174 141.632 312.859 140.911 312.227C140.197 311.595 139.84 310.799 139.84 309.837C139.84 308.656 140.276 307.75 141.148 307.118C142.027 306.486 143.294 306.167 144.949 306.16H146.319V305.521C146.319 305.006 146.185 304.594 145.917 304.285C145.656 303.976 145.241 303.822 144.671 303.822C144.169 303.822 143.775 303.942 143.486 304.182C143.205 304.423 143.064 304.752 143.064 305.171H140.087C140.087 304.526 140.286 303.928 140.684 303.379C141.083 302.83 141.646 302.4 142.374 302.091C143.102 301.776 143.919 301.618 144.825 301.618C146.198 301.618 147.287 301.964 148.09 302.658C148.901 303.345 149.306 304.313 149.306 305.563V310.393C149.313 311.451 149.46 312.251 149.749 312.793V312.968H146.741ZM144.279 310.898C144.719 310.898 145.124 310.802 145.495 310.61C145.865 310.411 146.14 310.146 146.319 309.817V307.901H145.206C143.716 307.901 142.923 308.416 142.827 309.446L142.817 309.621C142.817 309.992 142.947 310.297 143.208 310.538C143.469 310.778 143.826 310.898 144.279 310.898ZM156.227 310.774C156.777 310.774 157.223 310.623 157.566 310.321C157.91 310.019 158.088 309.617 158.102 309.116H160.893C160.887 309.871 160.681 310.565 160.275 311.197C159.87 311.822 159.314 312.309 158.607 312.659C157.906 313.003 157.13 313.174 156.279 313.174C154.686 313.174 153.429 312.67 152.509 311.66C151.589 310.644 151.129 309.243 151.129 307.458V307.262C151.129 305.545 151.585 304.176 152.499 303.152C153.412 302.129 154.665 301.618 156.258 301.618C157.652 301.618 158.768 302.016 159.606 302.812C160.45 303.602 160.88 304.656 160.893 305.975H158.102C158.088 305.398 157.91 304.931 157.566 304.574C157.223 304.21 156.77 304.028 156.207 304.028C155.513 304.028 154.988 304.282 154.631 304.79C154.281 305.291 154.106 306.109 154.106 307.242V307.551C154.106 308.697 154.281 309.521 154.631 310.023C154.981 310.524 155.513 310.774 156.227 310.774ZM166.157 299.084V301.824H168.062V304.007H166.157V309.569C166.157 309.981 166.236 310.277 166.394 310.455C166.552 310.634 166.854 310.723 167.3 310.723C167.63 310.723 167.922 310.699 168.176 310.651V312.907C167.592 313.085 166.991 313.174 166.373 313.174C164.286 313.174 163.221 312.12 163.18 310.012V304.007H161.553V301.824H163.18V299.084H166.157Z" fill="white"/>
<rect x="89.3053" y="285.937" width="104.221" height="39.0632" stroke="white" stroke-width="3.51579"/>
<rect x="1198.76" y="296.758" width="362.484" height="163.484" fill="black" stroke="white" stroke-width="3.51579"/>
<path d="M1358.23 385.362H1346.71L1344.12 392.538H1340.38L1350.88 365.043H1354.05L1364.57 392.538H1360.85L1358.23 385.362ZM1347.8 382.378H1357.15L1352.47 369.518L1347.8 382.378ZM1380.11 390.517C1378.75 392.116 1376.76 392.915 1374.13 392.915C1371.95 392.915 1370.29 392.286 1369.14 391.027C1368.01 389.755 1367.44 387.88 1367.42 385.399V372.105H1370.92V385.305C1370.92 388.402 1372.18 389.95 1374.69 389.95C1377.36 389.95 1379.14 388.956 1380.02 386.967V372.105H1383.51V392.538H1380.19L1380.11 390.517ZM1393.58 367.158V372.105H1397.39V374.806H1393.58V387.477C1393.58 388.295 1393.75 388.912 1394.09 389.327C1394.43 389.73 1395.01 389.932 1395.82 389.932C1396.23 389.932 1396.78 389.856 1397.49 389.705V392.538C1396.57 392.789 1395.67 392.915 1394.8 392.915C1393.24 392.915 1392.07 392.443 1391.27 391.499C1390.48 390.555 1390.08 389.214 1390.08 387.477V374.806H1386.36V372.105H1390.08V367.158H1393.58ZM1404.98 374.579C1406.53 372.678 1408.55 371.728 1411.03 371.728C1415.34 371.728 1417.52 374.164 1417.56 379.036V392.538H1414.07V379.017C1414.05 377.544 1413.71 376.455 1413.05 375.75C1412.39 375.045 1411.37 374.692 1409.97 374.692C1408.84 374.692 1407.84 374.995 1406.98 375.599C1406.13 376.203 1405.46 376.996 1404.98 377.978V392.538H1401.49V363.532H1404.98V374.579Z" fill="white"/>
<path d="M1538.39 309.063L1548.94 319.611M1538.39 319.611L1548.94 309.063" stroke="white" stroke-width="3.51579"/>
<rect x="1209.31" y="280.937" width="129.221" height="39.0632" fill="black"/>
<path d="M1247.55 307.968H1244.46L1238.44 298.101V307.968H1235.35V292.971H1238.44L1244.47 302.86V292.971H1247.55V307.968ZM1262.56 300.81C1262.56 302.286 1262.3 303.581 1261.78 304.693C1261.26 305.805 1260.51 306.664 1259.54 307.268C1258.57 307.872 1257.46 308.174 1256.2 308.174C1254.96 308.174 1253.85 307.876 1252.87 307.278C1251.9 306.681 1251.14 305.829 1250.61 304.724C1250.07 303.611 1249.8 302.334 1249.79 300.892V300.151C1249.79 298.674 1250.06 297.376 1250.59 296.257C1251.12 295.131 1251.87 294.269 1252.84 293.672C1253.82 293.068 1254.93 292.765 1256.18 292.765C1257.43 292.765 1258.54 293.068 1259.51 293.672C1260.48 294.269 1261.23 295.131 1261.76 296.257C1262.3 297.376 1262.56 298.671 1262.56 300.14V300.81ZM1259.43 300.13C1259.43 298.557 1259.15 297.363 1258.59 296.546C1258.03 295.728 1257.22 295.32 1256.18 295.32C1255.14 295.32 1254.34 295.725 1253.78 296.535C1253.22 297.339 1252.93 298.52 1252.92 300.078V300.81C1252.92 302.341 1253.21 303.529 1253.77 304.374C1254.33 305.218 1255.14 305.641 1256.2 305.641C1257.24 305.641 1258.03 305.235 1258.59 304.425C1259.15 303.608 1259.43 302.42 1259.43 300.861V300.13ZM1264.81 307.968V292.971H1269.42C1270.74 292.971 1271.92 293.27 1272.96 293.867C1274 294.458 1274.82 295.303 1275.4 296.401C1275.98 297.493 1276.27 298.736 1276.27 300.13V300.82C1276.27 302.214 1275.99 303.454 1275.41 304.538C1274.84 305.623 1274.03 306.465 1272.99 307.062C1271.95 307.659 1270.77 307.962 1269.46 307.968H1264.81ZM1267.9 295.474V305.486H1269.39C1270.6 305.486 1271.53 305.091 1272.16 304.302C1272.8 303.512 1273.13 302.382 1273.14 300.913V300.12C1273.14 298.595 1272.83 297.442 1272.2 296.659C1271.56 295.869 1270.64 295.474 1269.42 295.474H1267.9ZM1287.55 301.469H1281.62V305.486H1288.58V307.968H1278.53V292.971H1288.56V295.474H1281.62V299.048H1287.55V301.469ZM1296.44 292.971H1299.53V303.354C1299.53 304.308 1299.32 305.153 1298.89 305.888C1298.47 306.616 1297.88 307.179 1297.11 307.577C1296.34 307.975 1295.47 308.174 1294.51 308.174C1292.92 308.174 1291.68 307.773 1290.8 306.969C1289.91 306.159 1289.47 305.016 1289.47 303.539H1292.58C1292.58 304.274 1292.73 304.817 1293.04 305.167C1293.35 305.517 1293.84 305.692 1294.51 305.692C1295.1 305.692 1295.57 305.49 1295.92 305.084C1296.27 304.679 1296.44 304.102 1296.44 303.354V292.971ZM1309.96 304.034C1309.96 303.45 1309.75 303.004 1309.34 302.695C1308.93 302.379 1308.18 302.049 1307.11 301.706C1306.04 301.356 1305.19 301.012 1304.57 300.676C1302.87 299.756 1302.01 298.516 1302.01 296.958C1302.01 296.147 1302.24 295.426 1302.69 294.795C1303.15 294.156 1303.81 293.658 1304.66 293.301C1305.52 292.944 1306.48 292.765 1307.55 292.765C1308.62 292.765 1309.57 292.961 1310.41 293.352C1311.25 293.737 1311.9 294.283 1312.36 294.99C1312.82 295.697 1313.06 296.501 1313.06 297.4H1309.97C1309.97 296.714 1309.75 296.182 1309.32 295.804C1308.88 295.419 1308.28 295.227 1307.49 295.227C1306.74 295.227 1306.15 295.388 1305.73 295.711C1305.31 296.027 1305.1 296.446 1305.1 296.968C1305.1 297.455 1305.35 297.864 1305.84 298.194C1306.33 298.523 1307.05 298.832 1308.01 299.121C1309.77 299.649 1311.05 300.305 1311.85 301.088C1312.65 301.871 1313.06 302.846 1313.06 304.013C1313.06 305.311 1312.57 306.331 1311.58 307.072C1310.6 307.807 1309.28 308.174 1307.62 308.174C1306.46 308.174 1305.41 307.965 1304.47 307.546C1303.52 307.12 1302.79 306.54 1302.29 305.805C1301.8 305.071 1301.55 304.219 1301.55 303.251H1304.65C1304.65 304.906 1305.64 305.733 1307.62 305.733C1308.35 305.733 1308.93 305.586 1309.34 305.29C1309.75 304.988 1309.96 304.569 1309.96 304.034Z" fill="white"/>
<rect x="1209.31" y="280.937" width="129.221" height="39.0632" stroke="white" stroke-width="3.51579"/>
<path fill-rule="evenodd" clip-rule="evenodd" d="M532.953 339L1197 339V337L532.995 337C532.998 337.166 533 337.333 533 337.5C533 338.004 532.984 338.504 532.953 339ZM486.047 339C486.016 338.504 486 338.004 486 337.5C486 337.333 486.002 337.166 486.005 337H443V339H486.047Z" fill="white"/>
<path d="M1174 314L1198 338L1174 362" stroke="white" stroke-width="2"/>
<circle cx="509.5" cy="337.5" r="19.5" stroke="white" stroke-width="2"/>
<path d="M500 338L506 344L518 332" stroke="white" stroke-width="2"/>
<rect width="319" height="86" transform="translate(489 292)" fill="white"/>
<path d="M551.358 343.343H549.049L554.807 326.359H557.116L551.358 343.343ZM561.886 342H558.771V325.5H561.886V342ZM563.97 336.081C563.97 334.928 564.192 333.9 564.636 332.998C565.08 332.096 565.717 331.397 566.548 330.903C567.386 330.409 568.356 330.162 569.459 330.162C571.027 330.162 572.306 330.642 573.294 331.602C574.289 332.561 574.844 333.865 574.959 335.512L574.98 336.307C574.98 338.09 574.483 339.522 573.487 340.604C572.492 341.678 571.156 342.215 569.48 342.215C567.805 342.215 566.465 341.678 565.463 340.604C564.467 339.529 563.97 338.068 563.97 336.221V336.081ZM567.074 336.307C567.074 337.41 567.282 338.255 567.697 338.842C568.113 339.422 568.707 339.712 569.48 339.712C570.232 339.712 570.82 339.425 571.242 338.853C571.665 338.272 571.876 337.349 571.876 336.081C571.876 335 571.665 334.162 571.242 333.567C570.82 332.973 570.225 332.676 569.459 332.676C568.7 332.676 568.113 332.973 567.697 333.567C567.282 334.155 567.074 335.068 567.074 336.307ZM576.441 336.103C576.441 334.319 576.864 332.883 577.709 331.795C578.561 330.706 579.707 330.162 581.146 330.162C582.421 330.162 583.413 330.599 584.122 331.473L584.251 330.377H587.065V341.613C587.065 342.63 586.833 343.515 586.367 344.267C585.909 345.019 585.261 345.591 584.423 345.985C583.585 346.379 582.604 346.576 581.479 346.576C580.627 346.576 579.797 346.404 578.987 346.061C578.178 345.724 577.566 345.287 577.15 344.75L578.525 342.859C579.299 343.726 580.237 344.159 581.34 344.159C582.163 344.159 582.804 343.937 583.263 343.493C583.721 343.056 583.95 342.433 583.95 341.624V341.001C583.234 341.81 582.292 342.215 581.125 342.215C579.729 342.215 578.597 341.671 577.73 340.582C576.871 339.486 576.441 338.036 576.441 336.231V336.103ZM579.546 336.328C579.546 337.381 579.757 338.208 580.18 338.81C580.602 339.404 581.182 339.701 581.92 339.701C582.865 339.701 583.542 339.347 583.95 338.638V333.75C583.535 333.041 582.865 332.687 581.941 332.687C581.197 332.687 580.609 332.991 580.18 333.6C579.757 334.208 579.546 335.118 579.546 336.328ZM592.737 342H589.622V330.377H592.737V342ZM589.439 327.369C589.439 326.904 589.593 326.521 589.901 326.22C590.216 325.919 590.643 325.769 591.18 325.769C591.71 325.769 592.132 325.919 592.447 326.22C592.762 326.521 592.92 326.904 592.92 327.369C592.92 327.842 592.759 328.229 592.437 328.529C592.121 328.83 591.702 328.98 591.18 328.98C590.657 328.98 590.234 328.83 589.912 328.529C589.597 328.229 589.439 327.842 589.439 327.369ZM598.162 330.377L598.259 331.72C599.09 330.681 600.203 330.162 601.6 330.162C602.831 330.162 603.748 330.524 604.35 331.247C604.951 331.97 605.259 333.052 605.273 334.491V342H602.169V334.566C602.169 333.908 602.026 333.431 601.739 333.138C601.453 332.837 600.977 332.687 600.311 332.687C599.437 332.687 598.782 333.059 598.345 333.804V342H595.24V330.377H598.162ZM608.614 343.343H606.305L612.062 326.359H614.372L608.614 343.343ZM622.601 342C622.457 341.721 622.354 341.373 622.289 340.958C621.537 341.796 620.56 342.215 619.356 342.215C618.218 342.215 617.272 341.885 616.521 341.227C615.776 340.568 615.403 339.737 615.403 338.734C615.403 337.503 615.858 336.557 616.768 335.898C617.684 335.24 619.006 334.907 620.731 334.899H622.16V334.233C622.16 333.696 622.021 333.267 621.741 332.944C621.469 332.622 621.036 332.461 620.441 332.461C619.919 332.461 619.507 332.586 619.206 332.837C618.912 333.088 618.766 333.431 618.766 333.868H615.661C615.661 333.195 615.869 332.572 616.284 331.999C616.7 331.426 617.287 330.979 618.046 330.656C618.805 330.327 619.657 330.162 620.603 330.162C622.035 330.162 623.17 330.524 624.008 331.247C624.853 331.963 625.275 332.973 625.275 334.276V339.314C625.283 340.417 625.437 341.252 625.737 341.817V342H622.601ZM620.033 339.841C620.492 339.841 620.914 339.741 621.301 339.54C621.688 339.332 621.974 339.057 622.16 338.713V336.715H621C619.446 336.715 618.619 337.252 618.519 338.326L618.508 338.509C618.508 338.896 618.644 339.214 618.916 339.465C619.188 339.715 619.561 339.841 620.033 339.841ZM632.494 339.712C633.067 339.712 633.533 339.554 633.891 339.239C634.249 338.924 634.435 338.505 634.449 337.982H637.36C637.353 338.77 637.138 339.493 636.716 340.152C636.293 340.804 635.713 341.312 634.976 341.678C634.245 342.036 633.436 342.215 632.548 342.215C630.886 342.215 629.576 341.688 628.616 340.636C627.657 339.576 627.177 338.115 627.177 336.253V336.049C627.177 334.258 627.653 332.83 628.605 331.763C629.558 330.696 630.865 330.162 632.526 330.162C633.98 330.162 635.144 330.577 636.018 331.408C636.898 332.232 637.346 333.331 637.36 334.706H634.449C634.435 334.104 634.249 333.618 633.891 333.245C633.533 332.866 633.06 332.676 632.473 332.676C631.749 332.676 631.201 332.941 630.829 333.471C630.464 333.993 630.281 334.846 630.281 336.027V336.35C630.281 337.546 630.464 338.405 630.829 338.928C631.194 339.451 631.749 339.712 632.494 339.712ZM643.967 339.712C644.54 339.712 645.005 339.554 645.363 339.239C645.721 338.924 645.908 338.505 645.922 337.982H648.833C648.826 338.77 648.611 339.493 648.188 340.152C647.766 340.804 647.186 341.312 646.448 341.678C645.718 342.036 644.909 342.215 644.021 342.215C642.359 342.215 641.049 341.688 640.089 340.636C639.129 339.576 638.649 338.115 638.649 336.253V336.049C638.649 334.258 639.126 332.83 640.078 331.763C641.031 330.696 642.338 330.162 643.999 330.162C645.453 330.162 646.617 330.577 647.49 331.408C648.371 332.232 648.819 333.331 648.833 334.706H645.922C645.908 334.104 645.721 333.618 645.363 333.245C645.005 332.866 644.533 332.676 643.945 332.676C643.222 332.676 642.674 332.941 642.302 333.471C641.937 333.993 641.754 334.846 641.754 336.027V336.35C641.754 337.546 641.937 338.405 642.302 338.928C642.667 339.451 643.222 339.712 643.967 339.712ZM655.955 342.215C654.251 342.215 652.861 341.692 651.787 340.646C650.72 339.601 650.187 338.208 650.187 336.468V336.167C650.187 335 650.412 333.958 650.863 333.041C651.314 332.117 651.952 331.408 652.775 330.914C653.606 330.413 654.551 330.162 655.611 330.162C657.201 330.162 658.451 330.663 659.36 331.666C660.277 332.669 660.735 334.09 660.735 335.931V337.198H653.334C653.434 337.957 653.735 338.566 654.236 339.024C654.745 339.483 655.386 339.712 656.159 339.712C657.355 339.712 658.29 339.279 658.963 338.412L660.488 340.12C660.023 340.779 659.393 341.295 658.598 341.667C657.803 342.032 656.922 342.215 655.955 342.215ZM655.601 332.676C654.985 332.676 654.483 332.883 654.097 333.299C653.717 333.714 653.474 334.309 653.366 335.082H657.685V334.835C657.67 334.147 657.484 333.618 657.126 333.245C656.768 332.866 656.259 332.676 655.601 332.676ZM668.803 338.788C668.803 338.409 668.613 338.111 668.233 337.896C667.861 337.674 667.259 337.478 666.429 337.306C663.664 336.726 662.282 335.551 662.282 333.782C662.282 332.751 662.708 331.892 663.561 331.204C664.42 330.509 665.541 330.162 666.923 330.162C668.398 330.162 669.576 330.509 670.457 331.204C671.345 331.899 671.789 332.801 671.789 333.911H668.685C668.685 333.467 668.541 333.102 668.255 332.815C667.968 332.522 667.521 332.375 666.912 332.375C666.389 332.375 665.985 332.493 665.698 332.729C665.412 332.966 665.269 333.267 665.269 333.632C665.269 333.976 665.43 334.255 665.752 334.47C666.081 334.677 666.633 334.86 667.406 335.018C668.18 335.168 668.831 335.34 669.361 335.533C671.001 336.135 671.821 337.177 671.821 338.659C671.821 339.719 671.367 340.578 670.457 341.237C669.548 341.889 668.373 342.215 666.934 342.215C665.96 342.215 665.093 342.043 664.334 341.699C663.582 341.348 662.991 340.872 662.562 340.271C662.132 339.662 661.917 339.007 661.917 338.305H664.86C664.889 338.856 665.093 339.279 665.473 339.572C665.852 339.866 666.361 340.013 666.998 340.013C667.592 340.013 668.04 339.902 668.341 339.68C668.649 339.451 668.803 339.153 668.803 338.788ZM680.125 338.788C680.125 338.409 679.935 338.111 679.556 337.896C679.183 337.674 678.582 337.478 677.751 337.306C674.987 336.726 673.604 335.551 673.604 333.782C673.604 332.751 674.031 331.892 674.883 331.204C675.742 330.509 676.863 330.162 678.245 330.162C679.72 330.162 680.898 330.509 681.779 331.204C682.667 331.899 683.111 332.801 683.111 333.911H680.007C680.007 333.467 679.864 333.102 679.577 332.815C679.291 332.522 678.843 332.375 678.234 332.375C677.712 332.375 677.307 332.493 677.021 332.729C676.734 332.966 676.591 333.267 676.591 333.632C676.591 333.976 676.752 334.255 677.074 334.47C677.404 334.677 677.955 334.86 678.729 335.018C679.502 335.168 680.154 335.34 680.684 335.533C682.324 336.135 683.144 337.177 683.144 338.659C683.144 339.719 682.689 340.578 681.779 341.237C680.87 341.889 679.695 342.215 678.256 342.215C677.282 342.215 676.415 342.043 675.656 341.699C674.904 341.348 674.313 340.872 673.884 340.271C673.454 339.662 673.239 339.007 673.239 338.305H676.183C676.211 338.856 676.415 339.279 676.795 339.572C677.174 339.866 677.683 340.013 678.32 340.013C678.915 340.013 679.362 339.902 679.663 339.68C679.971 339.451 680.125 339.153 680.125 338.788ZM691.189 336.554H685.142V334.051H691.189V336.554ZM697.398 327.52V330.377H699.386V332.654H697.398V338.455C697.398 338.885 697.481 339.193 697.646 339.379C697.81 339.565 698.125 339.658 698.591 339.658C698.935 339.658 699.239 339.633 699.504 339.583V341.936C698.895 342.122 698.269 342.215 697.624 342.215C695.447 342.215 694.337 341.116 694.294 338.917V332.654H692.597V330.377H694.294V327.52H697.398ZM700.31 336.081C700.31 334.928 700.532 333.9 700.976 332.998C701.42 332.096 702.057 331.397 702.888 330.903C703.726 330.409 704.696 330.162 705.799 330.162C707.367 330.162 708.646 330.642 709.634 331.602C710.629 332.561 711.184 333.865 711.299 335.512L711.32 336.307C711.32 338.09 710.823 339.522 709.827 340.604C708.832 341.678 707.496 342.215 705.82 342.215C704.145 342.215 702.805 341.678 701.803 340.604C700.807 339.529 700.31 338.068 700.31 336.221V336.081ZM703.414 336.307C703.414 337.41 703.622 338.255 704.037 338.842C704.452 339.422 705.047 339.712 705.82 339.712C706.572 339.712 707.16 339.425 707.582 338.853C708.005 338.272 708.216 337.349 708.216 336.081C708.216 335 708.005 334.162 707.582 333.567C707.16 332.973 706.565 332.676 705.799 332.676C705.04 332.676 704.452 332.973 704.037 333.567C703.622 334.155 703.414 335.068 703.414 336.307ZM717.454 337.338L716.337 338.455V342H713.232V325.5H716.337V334.642L716.938 333.868L719.914 330.377H723.642L719.441 335.222L724.007 342H720.44L717.454 337.338ZM730.119 342.215C728.415 342.215 727.025 341.692 725.951 340.646C724.884 339.601 724.351 338.208 724.351 336.468V336.167C724.351 335 724.576 333.958 725.027 333.041C725.479 332.117 726.116 331.408 726.939 330.914C727.77 330.413 728.715 330.162 729.775 330.162C731.365 330.162 732.615 330.663 733.524 331.666C734.441 332.669 734.899 334.09 734.899 335.931V337.198H727.498C727.598 337.957 727.899 338.566 728.4 339.024C728.909 339.483 729.55 339.712 730.323 339.712C731.519 339.712 732.454 339.279 733.127 338.412L734.652 340.12C734.187 340.779 733.557 341.295 732.762 341.667C731.967 342.032 731.086 342.215 730.119 342.215ZM729.765 332.676C729.149 332.676 728.647 332.883 728.261 333.299C727.881 333.714 727.638 334.309 727.53 335.082H731.849V334.835C731.834 334.147 731.648 333.618 731.29 333.245C730.932 332.866 730.424 332.676 729.765 332.676ZM739.529 330.377L739.626 331.72C740.457 330.681 741.57 330.162 742.967 330.162C744.199 330.162 745.115 330.524 745.717 331.247C746.318 331.97 746.626 333.052 746.641 334.491V342H743.536V334.566C743.536 333.908 743.393 333.431 743.106 333.138C742.82 332.837 742.344 332.687 741.678 332.687C740.804 332.687 740.149 333.059 739.712 333.804V342H736.607V330.377H739.529Z" fill="black"/>
<path fill-rule="evenodd" clip-rule="evenodd" d="M1107.05 432L447 432V430L1107.01 430C1107 430.166 1107 430.333 1107 430.5C1107 431.004 1107.02 431.504 1107.05 432ZM1153.95 432C1153.98 431.504 1154 431.004 1154 430.5C1154 430.333 1154 430.166 1153.99 430H1197V432H1153.95Z" fill="white"/>
<path d="M470 407L446 431L470 455" stroke="white" stroke-width="2"/>
<circle r="19.5" transform="matrix(-1 0 0 1 1130.5 430.5)" stroke="white" stroke-width="2"/>
<path d="M1140 431L1134 437L1122 425" stroke="white" stroke-width="2"/>
<rect width="230" height="86" transform="translate(958 385)" fill="white"/>
<path d="M1026.15 419.359H1029.38V430.188C1029.38 431.183 1029.15 432.064 1028.71 432.83C1028.27 433.589 1027.65 434.176 1026.85 434.592C1026.05 435.007 1025.14 435.215 1024.13 435.215C1022.48 435.215 1021.19 434.796 1020.27 433.958C1019.34 433.113 1018.88 431.921 1018.88 430.381H1022.12C1022.12 431.147 1022.29 431.713 1022.61 432.078C1022.93 432.443 1023.44 432.626 1024.13 432.626C1024.75 432.626 1025.24 432.415 1025.61 431.992C1025.97 431.57 1026.15 430.968 1026.15 430.188V419.359ZM1044.32 430.488L1046.42 419.359H1049.64L1046.17 435H1042.92L1040.38 424.537L1037.83 435H1034.59L1031.12 419.359H1034.33L1036.44 430.467L1039.02 419.359H1041.75L1044.32 430.488ZM1063.31 421.97H1058.52V435H1055.3V421.97H1050.57V419.359H1063.31V421.97ZM1081.12 421.97H1076.33V435H1073.11V421.97H1068.38V419.359H1081.12V421.97ZM1080.05 429.081C1080.05 427.928 1080.27 426.9 1080.71 425.998C1081.16 425.096 1081.79 424.397 1082.62 423.903C1083.46 423.409 1084.43 423.162 1085.54 423.162C1087.1 423.162 1088.38 423.642 1089.37 424.602C1090.37 425.561 1090.92 426.865 1091.04 428.512L1091.06 429.307C1091.06 431.09 1090.56 432.522 1089.56 433.604C1088.57 434.678 1087.23 435.215 1085.56 435.215C1083.88 435.215 1082.54 434.678 1081.54 433.604C1080.54 432.529 1080.05 431.068 1080.05 429.221V429.081ZM1083.15 429.307C1083.15 430.41 1083.36 431.255 1083.77 431.842C1084.19 432.422 1084.78 432.712 1085.56 432.712C1086.31 432.712 1086.9 432.425 1087.32 431.853C1087.74 431.272 1087.95 430.349 1087.95 429.081C1087.95 428 1087.74 427.162 1087.32 426.567C1086.9 425.973 1086.3 425.676 1085.54 425.676C1084.78 425.676 1084.19 425.973 1083.77 426.567C1083.36 427.155 1083.15 428.068 1083.15 429.307ZM1097.19 430.338L1096.07 431.455V435H1092.97V418.5H1096.07V427.642L1096.68 426.868L1099.65 423.377H1103.38L1099.18 428.222L1103.74 435H1100.18L1097.19 430.338ZM1109.86 435.215C1108.15 435.215 1106.76 434.692 1105.69 433.646C1104.62 432.601 1104.09 431.208 1104.09 429.468V429.167C1104.09 428 1104.31 426.958 1104.76 426.041C1105.22 425.117 1105.85 424.408 1106.68 423.914C1107.51 423.413 1108.45 423.162 1109.51 423.162C1111.1 423.162 1112.35 423.663 1113.26 424.666C1114.18 425.669 1114.64 427.09 1114.64 428.931V430.198H1107.24C1107.34 430.957 1107.64 431.566 1108.14 432.024C1108.65 432.483 1109.29 432.712 1110.06 432.712C1111.26 432.712 1112.19 432.279 1112.86 431.412L1114.39 433.12C1113.92 433.779 1113.29 434.295 1112.5 434.667C1111.7 435.032 1110.82 435.215 1109.86 435.215ZM1109.5 425.676C1108.89 425.676 1108.38 425.883 1108 426.299C1107.62 426.714 1107.38 427.309 1107.27 428.082H1111.59V427.835C1111.57 427.147 1111.39 426.618 1111.03 426.245C1110.67 425.866 1110.16 425.676 1109.5 425.676ZM1119.27 423.377L1119.36 424.72C1120.19 423.681 1121.31 423.162 1122.7 423.162C1123.94 423.162 1124.85 423.524 1125.45 424.247C1126.06 424.97 1126.36 426.052 1126.38 427.491V435H1123.27V427.566C1123.27 426.908 1123.13 426.431 1122.84 426.138C1122.56 425.837 1122.08 425.687 1121.42 425.687C1120.54 425.687 1119.89 426.059 1119.45 426.804V435H1116.34V423.377H1119.27Z" fill="black"/>
<rect x="78.7579" y="681.758" width="362.484" height="163.484" fill="black" stroke="white" stroke-width="3.51579"/>
<path d="M195.607 765.395H184.069V777.538H180.443V750.043H197.476V753.027H184.069V762.431H195.607V765.395ZM210.657 760.24C210.128 760.152 209.555 760.108 208.939 760.108C206.647 760.108 205.093 761.084 204.274 763.035V777.538H200.781V757.105H204.18L204.237 759.466C205.382 757.64 207.006 756.728 209.109 756.728C209.788 756.728 210.305 756.816 210.657 756.992V760.24ZM212.583 767.133C212.583 765.131 212.973 763.331 213.754 761.732C214.547 760.133 215.642 758.899 217.04 758.031C218.45 757.162 220.055 756.728 221.855 756.728C224.637 756.728 226.884 757.691 228.596 759.617C230.321 761.543 231.184 764.105 231.184 767.303V767.548C231.184 769.537 230.8 771.325 230.032 772.911C229.276 774.485 228.187 775.712 226.765 776.593C225.355 777.475 223.731 777.915 221.893 777.915C219.123 777.915 216.876 776.952 215.151 775.026C213.439 773.1 212.583 770.551 212.583 767.378V767.133ZM216.096 767.548C216.096 769.814 216.618 771.633 217.663 773.005C218.72 774.378 220.13 775.064 221.893 775.064C223.668 775.064 225.078 774.371 226.123 772.987C227.168 771.589 227.69 769.638 227.69 767.133C227.69 764.892 227.155 763.079 226.085 761.694C225.027 760.297 223.617 759.598 221.855 759.598C220.13 759.598 218.739 760.284 217.682 761.656C216.624 763.029 216.096 764.992 216.096 767.548ZM238.869 757.105L238.982 759.674C240.544 757.71 242.583 756.728 245.101 756.728C249.419 756.728 251.597 759.164 251.635 764.036V777.538H248.141V764.017C248.128 762.544 247.789 761.455 247.121 760.75C246.467 760.045 245.441 759.692 244.043 759.692C242.91 759.692 241.916 759.995 241.06 760.599C240.204 761.203 239.536 761.996 239.058 762.978V777.538H235.565V757.105H238.869ZM261.643 752.158V757.105H265.457V759.806H261.643V772.477C261.643 773.295 261.813 773.912 262.153 774.327C262.493 774.73 263.072 774.932 263.89 774.932C264.293 774.932 264.847 774.856 265.552 774.705V777.538C264.633 777.789 263.739 777.915 262.87 777.915C261.309 777.915 260.132 777.443 259.339 776.499C258.546 775.555 258.149 774.214 258.149 772.477V759.806H254.429V757.105H258.149V752.158H261.643ZM276.825 767.284H267.61V764.432H276.825V767.284ZM296.332 764.829H284.416V774.573H298.258V777.538H280.791V750.043H298.069V753.027H284.416V761.864H296.332V764.829ZM305.528 757.105L305.642 759.674C307.203 757.71 309.242 756.728 311.76 756.728C316.078 756.728 318.256 759.164 318.294 764.036V777.538H314.8V764.017C314.788 762.544 314.448 761.455 313.781 760.75C313.126 760.045 312.1 759.692 310.703 759.692C309.569 759.692 308.575 759.995 307.719 760.599C306.863 761.203 306.196 761.996 305.717 762.978V777.538H302.224V757.105H305.528ZM322.712 767.152C322.712 764.017 323.455 761.499 324.941 759.598C326.426 757.685 328.371 756.728 330.776 756.728C333.168 756.728 335.062 757.546 336.46 759.183V748.532H339.953V777.538H336.743L336.573 775.347C335.176 777.059 333.231 777.915 330.738 777.915C328.371 777.915 326.439 776.946 324.941 775.007C323.455 773.068 322.712 770.538 322.712 767.416V767.152ZM326.206 767.548C326.206 769.864 326.684 771.677 327.641 772.987C328.598 774.296 329.92 774.95 331.607 774.95C333.822 774.95 335.44 773.956 336.46 771.967V762.582C335.415 760.656 333.81 759.692 331.644 759.692C329.932 759.692 328.598 760.353 327.641 761.675C326.684 762.997 326.206 764.955 326.206 767.548Z" fill="white"/>
<path d="M418.39 694.063L428.937 704.611M418.39 704.611L428.937 694.063" stroke="white" stroke-width="3.51579"/>
<rect x="89.3053" y="665.937" width="104.221" height="39.0632" fill="black"/>
<path d="M121.145 687.478H118.683V692.968H115.593V677.971H121.166C122.937 677.971 124.304 678.366 125.265 679.156C126.226 679.946 126.707 681.061 126.707 682.503C126.707 683.527 126.484 684.382 126.038 685.068C125.598 685.748 124.929 686.29 124.029 686.696L127.274 692.824V692.968H123.957L121.145 687.478ZM118.683 684.975H121.176C121.952 684.975 122.553 684.78 122.978 684.388C123.404 683.99 123.617 683.444 123.617 682.751C123.617 682.043 123.415 681.487 123.009 681.082C122.611 680.677 121.997 680.474 121.166 680.474H118.683V684.975ZM134 693.174C132.365 693.174 131.033 692.673 130.003 691.671C128.98 690.668 128.468 689.332 128.468 687.664V687.375C128.468 686.256 128.685 685.257 129.117 684.378C129.55 683.492 130.161 682.812 130.951 682.339C131.747 681.858 132.654 681.618 133.67 681.618C135.194 681.618 136.393 682.098 137.265 683.06C138.144 684.021 138.583 685.384 138.583 687.149V688.364H131.486C131.583 689.092 131.871 689.676 132.352 690.115C132.839 690.555 133.454 690.774 134.195 690.774C135.342 690.774 136.238 690.359 136.884 689.528L138.346 691.166C137.9 691.798 137.296 692.292 136.533 692.649C135.771 692.999 134.927 693.174 134 693.174ZM133.66 684.028C133.069 684.028 132.589 684.227 132.218 684.625C131.854 685.024 131.62 685.594 131.517 686.335H135.658V686.098C135.644 685.439 135.466 684.931 135.122 684.574C134.779 684.21 134.291 684.028 133.66 684.028ZM146.741 692.968C146.604 692.701 146.504 692.368 146.442 691.969C145.721 692.773 144.784 693.174 143.63 693.174C142.538 693.174 141.632 692.859 140.911 692.227C140.197 691.595 139.84 690.799 139.84 689.837C139.84 688.656 140.276 687.75 141.148 687.118C142.027 686.486 143.294 686.167 144.949 686.16H146.319V685.521C146.319 685.006 146.185 684.594 145.917 684.285C145.656 683.976 145.241 683.822 144.671 683.822C144.169 683.822 143.775 683.942 143.486 684.182C143.205 684.423 143.064 684.752 143.064 685.171H140.087C140.087 684.526 140.286 683.928 140.684 683.379C141.083 682.83 141.646 682.4 142.374 682.091C143.102 681.776 143.919 681.618 144.825 681.618C146.198 681.618 147.287 681.964 148.09 682.658C148.901 683.345 149.306 684.313 149.306 685.563V690.393C149.313 691.451 149.46 692.251 149.749 692.793V692.968H146.741ZM144.279 690.898C144.719 690.898 145.124 690.802 145.495 690.61C145.865 690.411 146.14 690.146 146.319 689.817V687.901H145.206C143.716 687.901 142.923 688.416 142.827 689.446L142.817 689.621C142.817 689.992 142.947 690.297 143.208 690.538C143.469 690.778 143.826 690.898 144.279 690.898ZM156.227 690.774C156.777 690.774 157.223 690.623 157.566 690.321C157.91 690.019 158.088 689.617 158.102 689.116H160.893C160.887 689.872 160.681 690.565 160.275 691.197C159.87 691.822 159.314 692.309 158.607 692.659C157.906 693.003 157.13 693.174 156.279 693.174C154.686 693.174 153.429 692.67 152.509 691.66C151.589 690.644 151.129 689.243 151.129 687.458V687.262C151.129 685.545 151.585 684.176 152.499 683.152C153.412 682.129 154.665 681.618 156.258 681.618C157.652 681.618 158.768 682.016 159.606 682.812C160.45 683.602 160.88 684.656 160.893 685.975H158.102C158.088 685.398 157.91 684.931 157.566 684.574C157.223 684.21 156.77 684.028 156.207 684.028C155.513 684.028 154.988 684.282 154.631 684.79C154.281 685.291 154.106 686.109 154.106 687.242V687.551C154.106 688.697 154.281 689.521 154.631 690.023C154.981 690.524 155.513 690.774 156.227 690.774ZM166.157 679.084V681.824H168.062V684.007H166.157V689.569C166.157 689.981 166.236 690.277 166.394 690.455C166.552 690.634 166.854 690.723 167.3 690.723C167.63 690.723 167.922 690.699 168.176 690.651V692.907C167.592 693.085 166.991 693.174 166.373 693.174C164.286 693.174 163.221 692.12 163.18 690.012V684.007H161.553V681.824H163.18V679.084H166.157Z" fill="white"/>
<rect x="89.3053" y="665.937" width="104.221" height="39.0632" stroke="white" stroke-width="3.51579"/>
<rect x="1198.76" y="676.758" width="362.484" height="163.484" fill="black" stroke="white" stroke-width="3.51579"/>
<path d="M1264.92 761.774V772.538H1261.3V745.043H1271.44C1274.45 745.043 1276.8 745.811 1278.5 747.347C1280.21 748.883 1281.07 750.916 1281.07 753.446C1281.07 756.115 1280.23 758.173 1278.56 759.621C1276.9 761.056 1274.51 761.774 1271.4 761.774H1264.92ZM1264.92 758.809H1271.44C1273.38 758.809 1274.86 758.356 1275.89 757.449C1276.93 756.53 1277.44 755.209 1277.44 753.484C1277.44 751.847 1276.93 750.538 1275.89 749.556C1274.86 748.574 1273.45 748.064 1271.65 748.027H1264.92V758.809ZM1295.02 755.24C1294.49 755.152 1293.92 755.108 1293.31 755.108C1291.01 755.108 1289.46 756.084 1288.64 758.035V772.538H1285.15V752.105H1288.55L1288.6 754.466C1289.75 752.64 1291.37 751.728 1293.48 751.728C1294.16 751.728 1294.67 751.816 1295.02 751.992V755.24ZM1296.95 762.133C1296.95 760.131 1297.34 758.331 1298.12 756.732C1298.91 755.133 1300.01 753.899 1301.41 753.031C1302.82 752.162 1304.42 751.728 1306.22 751.728C1309 751.728 1311.25 752.691 1312.96 754.617C1314.69 756.543 1315.55 759.105 1315.55 762.303V762.548C1315.55 764.537 1315.17 766.325 1314.4 767.911C1313.64 769.485 1312.55 770.712 1311.13 771.593C1309.72 772.475 1308.1 772.915 1306.26 772.915C1303.49 772.915 1301.24 771.952 1299.52 770.026C1297.81 768.1 1296.95 765.551 1296.95 762.378V762.133ZM1300.46 762.548C1300.46 764.814 1300.98 766.633 1302.03 768.005C1303.09 769.378 1304.5 770.064 1306.26 770.064C1308.03 770.064 1309.44 769.371 1310.49 767.987C1311.53 766.589 1312.06 764.638 1312.06 762.133C1312.06 759.892 1311.52 758.079 1310.45 756.694C1309.39 755.297 1307.98 754.598 1306.22 754.598C1304.5 754.598 1303.11 755.284 1302.05 756.656C1300.99 758.029 1300.46 759.992 1300.46 762.548ZM1323.54 752.105V774.898C1323.54 778.826 1321.76 780.79 1318.19 780.79C1317.43 780.79 1316.71 780.676 1316.06 780.45V777.655C1316.46 777.756 1316.99 777.806 1317.65 777.806C1318.43 777.806 1319.02 777.592 1319.42 777.164C1319.84 776.749 1320.04 776.018 1320.04 774.973V752.105H1323.54ZM1319.69 746.686C1319.69 746.132 1319.86 745.66 1320.2 745.27C1320.55 744.867 1321.06 744.665 1321.73 744.665C1322.4 744.665 1322.92 744.86 1323.27 745.251C1323.63 745.641 1323.8 746.119 1323.8 746.686C1323.8 747.252 1323.63 747.724 1323.27 748.102C1322.92 748.48 1322.4 748.669 1321.73 748.669C1321.05 748.669 1320.54 748.48 1320.2 748.102C1319.86 747.724 1319.69 747.252 1319.69 746.686ZM1337.66 772.915C1334.89 772.915 1332.64 772.009 1330.9 770.196C1329.17 768.371 1328.3 765.935 1328.3 762.888V762.246C1328.3 760.219 1328.68 758.413 1329.45 756.826C1330.23 755.228 1331.31 753.981 1332.7 753.087C1334.09 752.181 1335.6 751.728 1337.23 751.728C1339.88 751.728 1341.95 752.603 1343.42 754.353C1344.9 756.102 1345.63 758.608 1345.63 761.868V763.322H1331.79C1331.84 765.337 1332.43 766.967 1333.55 768.213C1334.68 769.447 1336.11 770.064 1337.85 770.064C1339.09 770.064 1340.13 769.812 1340.99 769.308C1341.84 768.805 1342.59 768.138 1343.23 767.307L1345.37 768.968C1343.66 771.6 1341.09 772.915 1337.66 772.915ZM1337.23 754.598C1335.82 754.598 1334.64 755.114 1333.68 756.147C1332.72 757.166 1332.13 758.601 1331.9 760.452H1342.14V760.188C1342.04 758.413 1341.56 757.04 1340.7 756.071C1339.85 755.089 1338.69 754.598 1337.23 754.598ZM1357.89 770.064C1359.13 770.064 1360.22 769.686 1361.15 768.931C1362.09 768.175 1362.6 767.231 1362.7 766.098H1366.01C1365.94 767.269 1365.54 768.383 1364.8 769.441C1364.06 770.498 1363.06 771.342 1361.82 771.971C1360.58 772.6 1359.27 772.915 1357.89 772.915C1355.11 772.915 1352.89 771.99 1351.24 770.139C1349.6 768.276 1348.79 765.733 1348.79 762.51V761.925C1348.79 759.936 1349.15 758.167 1349.88 756.619C1350.61 755.07 1351.66 753.868 1353.02 753.012C1354.39 752.156 1356.01 751.728 1357.87 751.728C1360.16 751.728 1362.06 752.414 1363.57 753.786C1365.09 755.158 1365.91 756.94 1366.01 759.13H1362.7C1362.6 757.808 1362.1 756.726 1361.19 755.882C1360.3 755.026 1359.19 754.598 1357.87 754.598C1356.09 754.598 1354.71 755.24 1353.73 756.524C1352.76 757.796 1352.28 759.64 1352.28 762.057V762.718C1352.28 765.072 1352.76 766.885 1353.73 768.157C1354.7 769.428 1356.09 770.064 1357.89 770.064ZM1374.67 747.158V752.105H1378.49V754.806H1374.67V767.477C1374.67 768.295 1374.84 768.912 1375.18 769.327C1375.52 769.73 1376.1 769.932 1376.92 769.932C1377.32 769.932 1377.88 769.856 1378.58 769.705V772.538C1377.66 772.789 1376.77 772.915 1375.9 772.915C1374.34 772.915 1373.16 772.443 1372.37 771.499C1371.58 770.555 1371.18 769.214 1371.18 767.477V754.806H1367.46V752.105H1371.18V747.158H1374.67ZM1400.83 760.282C1397.72 759.388 1395.45 758.293 1394.03 756.996C1392.62 755.687 1391.92 754.076 1391.92 752.162C1391.92 749.997 1392.78 748.209 1394.5 746.799C1396.24 745.377 1398.49 744.665 1401.26 744.665C1403.15 744.665 1404.83 745.03 1406.3 745.761C1407.79 746.491 1408.94 747.498 1409.74 748.782C1410.56 750.066 1410.97 751.47 1410.97 752.993H1407.32C1407.32 751.331 1406.8 750.028 1405.74 749.084C1404.68 748.127 1403.19 747.649 1401.26 747.649C1399.48 747.649 1398.08 748.045 1397.07 748.839C1396.08 749.619 1395.58 750.708 1395.58 752.105C1395.58 753.226 1396.05 754.176 1397 754.957C1397.95 755.725 1399.57 756.43 1401.85 757.072C1404.14 757.714 1405.93 758.425 1407.21 759.206C1408.51 759.974 1409.46 760.874 1410.08 761.906C1410.71 762.938 1411.03 764.153 1411.03 765.551C1411.03 767.779 1410.16 769.566 1408.42 770.914C1406.68 772.248 1404.36 772.915 1401.45 772.915C1399.56 772.915 1397.8 772.556 1396.16 771.839C1394.53 771.109 1393.26 770.114 1392.37 768.855C1391.49 767.596 1391.05 766.167 1391.05 764.569H1394.69C1394.69 766.23 1395.3 767.546 1396.52 768.515C1397.76 769.472 1399.4 769.95 1401.45 769.95C1403.37 769.95 1404.83 769.56 1405.85 768.78C1406.87 767.999 1407.38 766.935 1407.38 765.588C1407.38 764.241 1406.91 763.203 1405.97 762.473C1405.02 761.73 1403.31 761 1400.83 760.282ZM1419.88 747.158V752.105H1423.7V754.806H1419.88V767.477C1419.88 768.295 1420.05 768.912 1420.39 769.327C1420.73 769.73 1421.31 769.932 1422.13 769.932C1422.53 769.932 1423.09 769.856 1423.79 769.705V772.538C1422.87 772.789 1421.98 772.915 1421.11 772.915C1419.55 772.915 1418.37 772.443 1417.58 771.499C1416.79 770.555 1416.39 769.214 1416.39 767.477V754.806H1412.67V752.105H1416.39V747.158H1419.88ZM1426.49 762.133C1426.49 760.131 1426.88 758.331 1427.66 756.732C1428.46 755.133 1429.55 753.899 1430.95 753.031C1432.36 752.162 1433.96 751.728 1435.76 751.728C1438.55 751.728 1440.79 752.691 1442.5 754.617C1444.23 756.543 1445.09 759.105 1445.09 762.303V762.548C1445.09 764.537 1444.71 766.325 1443.94 767.911C1443.18 769.485 1442.1 770.712 1440.67 771.593C1439.26 772.475 1437.64 772.915 1435.8 772.915C1433.03 772.915 1430.78 771.952 1429.06 770.026C1427.35 768.1 1426.49 765.551 1426.49 762.378V762.133ZM1430 762.548C1430 764.814 1430.53 766.633 1431.57 768.005C1432.63 769.378 1434.04 770.064 1435.8 770.064C1437.58 770.064 1438.99 769.371 1440.03 767.987C1441.08 766.589 1441.6 764.638 1441.6 762.133C1441.6 759.892 1441.06 758.079 1439.99 756.694C1438.94 755.297 1437.53 754.598 1435.76 754.598C1434.04 754.598 1432.65 755.284 1431.59 756.656C1430.53 758.029 1430 759.992 1430 762.548ZM1459.35 755.24C1458.82 755.152 1458.25 755.108 1457.63 755.108C1455.34 755.108 1453.78 756.084 1452.97 758.035V772.538H1449.47V752.105H1452.87L1452.93 754.466C1454.07 752.64 1455.7 751.728 1457.8 751.728C1458.48 751.728 1459 751.816 1459.35 751.992V755.24ZM1470.68 772.915C1467.91 772.915 1465.66 772.009 1463.92 770.196C1462.18 768.371 1461.31 765.935 1461.31 762.888V762.246C1461.31 760.219 1461.7 758.413 1462.46 756.826C1463.25 755.228 1464.33 753.981 1465.71 753.087C1467.11 752.181 1468.62 751.728 1470.24 751.728C1472.9 751.728 1474.97 752.603 1476.44 754.353C1477.91 756.102 1478.65 758.608 1478.65 761.868V763.322H1464.81C1464.86 765.337 1465.44 766.967 1466.56 768.213C1467.7 769.447 1469.13 770.064 1470.87 770.064C1472.1 770.064 1473.15 769.812 1474 769.308C1474.86 768.805 1475.61 768.138 1476.25 767.307L1478.38 768.968C1476.67 771.6 1474.1 772.915 1470.68 772.915ZM1470.24 754.598C1468.83 754.598 1467.65 755.114 1466.69 756.147C1465.74 757.166 1465.15 758.601 1464.92 760.452H1475.15V760.188C1475.05 758.413 1474.58 757.04 1473.72 756.071C1472.86 755.089 1471.71 754.598 1470.24 754.598ZM1481.86 762.152C1481.86 759.017 1482.6 756.499 1484.09 754.598C1485.57 752.685 1487.52 751.728 1489.92 751.728C1492.31 751.728 1494.21 752.546 1495.61 754.183V743.532H1499.1V772.538H1495.89L1495.72 770.347C1494.32 772.059 1492.38 772.915 1489.88 772.915C1487.52 772.915 1485.58 771.946 1484.09 770.007C1482.6 768.068 1481.86 765.538 1481.86 762.416V762.152ZM1485.35 762.548C1485.35 764.864 1485.83 766.677 1486.79 767.987C1487.74 769.296 1489.07 769.95 1490.75 769.95C1492.97 769.95 1494.59 768.956 1495.61 766.967V757.582C1494.56 755.656 1492.96 754.692 1490.79 754.692C1489.08 754.692 1487.74 755.353 1486.79 756.675C1485.83 757.997 1485.35 759.955 1485.35 762.548Z" fill="white"/>
<path d="M1538.39 689.063L1548.94 699.611M1538.39 699.611L1548.94 689.063" stroke="white" stroke-width="3.51579"/>
<rect x="1209.31" y="660.937" width="129.221" height="39.0632" fill="black"/>
<path d="M1247.55 687.968H1244.46L1238.44 678.101V687.968H1235.35V672.971H1238.44L1244.47 682.86V672.971H1247.55V687.968ZM1262.56 680.81C1262.56 682.286 1262.3 683.581 1261.78 684.693C1261.26 685.805 1260.51 686.664 1259.54 687.268C1258.57 687.872 1257.46 688.174 1256.2 688.174C1254.96 688.174 1253.85 687.876 1252.87 687.278C1251.9 686.681 1251.14 685.829 1250.61 684.724C1250.07 683.611 1249.8 682.334 1249.79 680.892V680.151C1249.79 678.674 1250.06 677.376 1250.59 676.257C1251.12 675.131 1251.87 674.269 1252.84 673.672C1253.82 673.068 1254.93 672.765 1256.18 672.765C1257.43 672.765 1258.54 673.068 1259.51 673.672C1260.48 674.269 1261.23 675.131 1261.76 676.257C1262.3 677.376 1262.56 678.671 1262.56 680.14V680.81ZM1259.43 680.13C1259.43 678.558 1259.15 677.363 1258.59 676.546C1258.03 675.728 1257.22 675.32 1256.18 675.32C1255.14 675.32 1254.34 675.725 1253.78 676.535C1253.22 677.339 1252.93 678.52 1252.92 680.078V680.81C1252.92 682.341 1253.21 683.529 1253.77 684.374C1254.33 685.218 1255.14 685.641 1256.2 685.641C1257.24 685.641 1258.03 685.235 1258.59 684.425C1259.15 683.608 1259.43 682.42 1259.43 680.861V680.13ZM1264.81 687.968V672.971H1269.42C1270.74 672.971 1271.92 673.27 1272.96 673.867C1274 674.458 1274.82 675.303 1275.4 676.401C1275.98 677.493 1276.27 678.736 1276.27 680.13V680.82C1276.27 682.214 1275.99 683.454 1275.41 684.538C1274.84 685.623 1274.03 686.465 1272.99 687.062C1271.95 687.659 1270.77 687.962 1269.46 687.968H1264.81ZM1267.9 675.474V685.486H1269.39C1270.6 685.486 1271.53 685.091 1272.16 684.302C1272.8 683.512 1273.13 682.382 1273.14 680.913V680.12C1273.14 678.595 1272.83 677.442 1272.2 676.659C1271.56 675.869 1270.64 675.474 1269.42 675.474H1267.9ZM1287.55 681.469H1281.62V685.486H1288.58V687.968H1278.53V672.971H1288.56V675.474H1281.62V679.048H1287.55V681.469ZM1296.44 672.971H1299.53V683.354C1299.53 684.308 1299.32 685.153 1298.89 685.888C1298.47 686.616 1297.88 687.179 1297.11 687.577C1296.34 687.975 1295.47 688.174 1294.51 688.174C1292.92 688.174 1291.68 687.773 1290.8 686.969C1289.91 686.159 1289.47 685.016 1289.47 683.539H1292.58C1292.58 684.274 1292.73 684.817 1293.04 685.167C1293.35 685.517 1293.84 685.692 1294.51 685.692C1295.1 685.692 1295.57 685.49 1295.92 685.084C1296.27 684.679 1296.44 684.102 1296.44 683.354V672.971ZM1309.96 684.034C1309.96 683.45 1309.75 683.004 1309.34 682.695C1308.93 682.379 1308.18 682.049 1307.11 681.706C1306.04 681.356 1305.19 681.012 1304.57 680.676C1302.87 679.756 1302.01 678.516 1302.01 676.958C1302.01 676.147 1302.24 675.426 1302.69 674.795C1303.15 674.156 1303.81 673.658 1304.66 673.301C1305.52 672.944 1306.48 672.765 1307.55 672.765C1308.62 672.765 1309.57 672.961 1310.41 673.352C1311.25 673.737 1311.9 674.283 1312.36 674.99C1312.82 675.697 1313.06 676.501 1313.06 677.4H1309.97C1309.97 676.714 1309.75 676.182 1309.32 675.804C1308.88 675.419 1308.28 675.227 1307.49 675.227C1306.74 675.227 1306.15 675.388 1305.73 675.711C1305.31 676.027 1305.1 676.446 1305.1 676.968C1305.1 677.455 1305.35 677.864 1305.84 678.194C1306.33 678.523 1307.05 678.832 1308.01 679.121C1309.77 679.649 1311.05 680.305 1311.85 681.088C1312.65 681.871 1313.06 682.846 1313.06 684.013C1313.06 685.311 1312.57 686.331 1311.58 687.072C1310.6 687.807 1309.28 688.174 1307.62 688.174C1306.46 688.174 1305.41 687.965 1304.47 687.546C1303.52 687.12 1302.79 686.54 1302.29 685.805C1301.8 685.071 1301.55 684.219 1301.55 683.251H1304.65C1304.65 684.906 1305.64 685.733 1307.62 685.733C1308.35 685.733 1308.93 685.586 1309.34 685.29C1309.75 684.988 1309.96 684.569 1309.96 684.034Z" fill="white"/>
<rect x="1209.31" y="660.937" width="129.221" height="39.0632" stroke="white" stroke-width="3.51579"/>
<path fill-rule="evenodd" clip-rule="evenodd" d="M532.953 719H1197V717H532.995C532.998 717.166 533 717.333 533 717.5C533 718.004 532.984 718.504 532.953 719ZM486.047 719C486.016 718.504 486 718.004 486 717.5C486 717.333 486.002 717.166 486.005 717H443V719H486.047Z" fill="white"/>
<path d="M1174 694L1198 718L1174 742" stroke="white" stroke-width="2"/>
<circle cx="509.5" cy="717.5" r="19.5" stroke="white" stroke-width="2"/>
<path d="M500 718L506 724L518 712" stroke="white" stroke-width="2"/>
<rect width="247" height="86" transform="translate(489 672)" fill="white"/>
<path d="M551.259 723.343H548.949L554.707 706.359H557.017L551.259 723.343ZM565.245 722C565.102 721.721 564.998 721.373 564.934 720.958C564.182 721.796 563.204 722.215 562.001 722.215C560.862 722.215 559.917 721.885 559.165 721.227C558.42 720.568 558.048 719.737 558.048 718.734C558.048 717.503 558.503 716.557 559.412 715.898C560.329 715.24 561.65 714.907 563.376 714.899H564.805V714.233C564.805 713.696 564.665 713.267 564.386 712.944C564.114 712.622 563.68 712.461 563.086 712.461C562.563 712.461 562.151 712.586 561.851 712.837C561.557 713.088 561.41 713.431 561.41 713.868H558.306C558.306 713.195 558.513 712.572 558.929 711.999C559.344 711.426 559.931 710.979 560.69 710.656C561.45 710.327 562.302 710.162 563.247 710.162C564.679 710.162 565.814 710.524 566.652 711.247C567.497 711.963 567.92 712.973 567.92 714.276V719.314C567.927 720.417 568.081 721.252 568.382 721.817V722H565.245ZM562.678 719.841C563.136 719.841 563.559 719.741 563.945 719.54C564.332 719.332 564.618 719.057 564.805 718.713V716.715H563.645C562.09 716.715 561.263 717.252 561.163 718.326L561.152 718.509C561.152 718.896 561.288 719.214 561.561 719.465C561.833 719.715 562.205 719.841 562.678 719.841ZM580.768 716.296C580.768 718.086 580.359 719.522 579.543 720.604C578.734 721.678 577.638 722.215 576.256 722.215C575.081 722.215 574.132 721.807 573.409 720.99V726.469H570.305V710.377H573.184L573.291 711.516C574.043 710.613 575.024 710.162 576.234 710.162C577.667 710.162 578.78 710.692 579.575 711.752C580.37 712.812 580.768 714.273 580.768 716.135V716.296ZM577.663 716.07C577.663 714.989 577.47 714.155 577.083 713.567C576.703 712.98 576.148 712.687 575.418 712.687C574.444 712.687 573.774 713.059 573.409 713.804V718.562C573.789 719.329 574.465 719.712 575.439 719.712C576.922 719.712 577.663 718.498 577.663 716.07ZM585.978 722H582.862V710.377H585.978V722ZM582.68 707.369C582.68 706.904 582.834 706.521 583.142 706.22C583.457 705.919 583.883 705.769 584.42 705.769C584.95 705.769 585.372 705.919 585.688 706.22C586.003 706.521 586.16 706.904 586.16 707.369C586.16 707.842 585.999 708.229 585.677 708.529C585.362 708.83 584.943 708.98 584.42 708.98C583.897 708.98 583.475 708.83 583.152 708.529C582.837 708.229 582.68 707.842 582.68 707.369ZM589.522 723.343H587.213L592.971 706.359H595.28L589.522 723.343ZM607.236 716.296C607.236 718.086 606.828 719.522 606.012 720.604C605.202 721.678 604.107 722.215 602.725 722.215C601.55 722.215 600.601 721.807 599.878 720.99V726.469H596.773V710.377H599.652L599.76 711.516C600.512 710.613 601.493 710.162 602.703 710.162C604.135 710.162 605.249 710.692 606.044 711.752C606.839 712.812 607.236 714.273 607.236 716.135V716.296ZM604.132 716.07C604.132 714.989 603.938 714.155 603.552 713.567C603.172 712.98 602.617 712.687 601.887 712.687C600.913 712.687 600.243 713.059 599.878 713.804V718.562C600.257 719.329 600.934 719.712 601.908 719.712C603.391 719.712 604.132 718.498 604.132 716.07ZM615.701 713.288C615.279 713.231 614.906 713.202 614.584 713.202C613.41 713.202 612.64 713.6 612.274 714.395V722H609.17V710.377H612.103L612.188 711.763C612.812 710.696 613.674 710.162 614.777 710.162C615.121 710.162 615.443 710.209 615.744 710.302L615.701 713.288ZM616.335 716.081C616.335 714.928 616.557 713.9 617.001 712.998C617.445 712.096 618.082 711.397 618.913 710.903C619.751 710.409 620.721 710.162 621.824 710.162C623.393 710.162 624.671 710.642 625.659 711.602C626.655 712.561 627.21 713.865 627.324 715.512L627.346 716.307C627.346 718.09 626.848 719.522 625.853 720.604C624.857 721.678 623.521 722.215 621.846 722.215C620.17 722.215 618.831 721.678 617.828 720.604C616.833 719.529 616.335 718.068 616.335 716.221V716.081ZM619.439 716.307C619.439 717.41 619.647 718.255 620.062 718.842C620.478 719.422 621.072 719.712 621.846 719.712C622.598 719.712 623.185 719.425 623.607 718.853C624.03 718.272 624.241 717.349 624.241 716.081C624.241 715 624.03 714.162 623.607 713.567C623.185 712.973 622.59 712.676 621.824 712.676C621.065 712.676 620.478 712.973 620.062 713.567C619.647 714.155 619.439 715.068 619.439 716.307ZM632.545 710.377V722.634C632.545 723.916 632.205 724.911 631.524 725.62C630.844 726.336 629.863 726.694 628.581 726.694C628.044 726.694 627.532 726.633 627.045 726.512V724.052C627.417 724.116 627.743 724.148 628.022 724.148C628.961 724.148 629.43 723.651 629.43 722.655V710.377H632.545ZM629.183 707.369C629.183 706.904 629.337 706.521 629.645 706.22C629.96 705.919 630.386 705.769 630.923 705.769C631.46 705.769 631.882 705.919 632.19 706.22C632.506 706.521 632.663 706.904 632.663 707.369C632.663 707.842 632.502 708.229 632.18 708.529C631.865 708.83 631.446 708.98 630.923 708.98C630.4 708.98 629.978 708.83 629.655 708.529C629.34 708.229 629.183 707.842 629.183 707.369ZM640.322 722.215C638.618 722.215 637.229 721.692 636.154 720.646C635.087 719.601 634.554 718.208 634.554 716.468V716.167C634.554 715 634.779 713.958 635.23 713.041C635.682 712.117 636.319 711.408 637.143 710.914C637.973 710.413 638.919 710.162 639.979 710.162C641.568 710.162 642.818 710.663 643.728 711.666C644.644 712.669 645.103 714.09 645.103 715.931V717.198H637.701C637.801 717.957 638.102 718.566 638.604 719.024C639.112 719.483 639.753 719.712 640.526 719.712C641.722 719.712 642.657 719.279 643.33 718.412L644.855 720.12C644.39 720.779 643.76 721.295 642.965 721.667C642.17 722.032 641.289 722.215 640.322 722.215ZM639.968 712.676C639.352 712.676 638.851 712.883 638.464 713.299C638.084 713.714 637.841 714.309 637.733 715.082H642.052V714.835C642.037 714.147 641.851 713.618 641.493 713.245C641.135 712.866 640.627 712.676 639.968 712.676ZM651.709 719.712C652.282 719.712 652.747 719.554 653.105 719.239C653.464 718.924 653.65 718.505 653.664 717.982H656.575C656.568 718.77 656.353 719.493 655.931 720.152C655.508 720.804 654.928 721.312 654.19 721.678C653.46 722.036 652.651 722.215 651.763 722.215C650.101 722.215 648.791 721.688 647.831 720.636C646.871 719.576 646.392 718.115 646.392 716.253V716.049C646.392 714.258 646.868 712.83 647.82 711.763C648.773 710.696 650.08 710.162 651.741 710.162C653.195 710.162 654.359 710.577 655.232 711.408C656.113 712.232 656.561 713.331 656.575 714.706H653.664C653.65 714.104 653.464 713.618 653.105 713.245C652.747 712.866 652.275 712.676 651.688 712.676C650.964 712.676 650.416 712.941 650.044 713.471C649.679 713.993 649.496 714.846 649.496 716.027V716.35C649.496 717.546 649.679 718.405 650.044 718.928C650.409 719.451 650.964 719.712 651.709 719.712ZM662.064 707.52V710.377H664.052V712.654H662.064V718.455C662.064 718.885 662.147 719.193 662.312 719.379C662.476 719.565 662.791 719.658 663.257 719.658C663.601 719.658 663.905 719.633 664.17 719.583V721.936C663.561 722.122 662.935 722.215 662.29 722.215C660.113 722.215 659.003 721.116 658.96 718.917V712.654H657.263V710.377H658.96V707.52H662.064ZM672.076 718.788C672.076 718.409 671.886 718.111 671.507 717.896C671.134 717.674 670.533 717.478 669.702 717.306C666.938 716.726 665.556 715.551 665.556 713.782C665.556 712.751 665.982 711.892 666.834 711.204C667.693 710.509 668.814 710.162 670.196 710.162C671.672 710.162 672.85 710.509 673.73 711.204C674.618 711.899 675.062 712.801 675.062 713.911H671.958C671.958 713.467 671.815 713.102 671.528 712.815C671.242 712.522 670.794 712.375 670.186 712.375C669.663 712.375 669.258 712.493 668.972 712.729C668.685 712.966 668.542 713.267 668.542 713.632C668.542 713.976 668.703 714.255 669.025 714.47C669.355 714.677 669.906 714.86 670.68 715.018C671.453 715.168 672.105 715.34 672.635 715.533C674.275 716.135 675.095 717.177 675.095 718.659C675.095 719.719 674.64 720.578 673.73 721.237C672.821 721.889 671.646 722.215 670.207 722.215C669.233 722.215 668.367 722.043 667.607 721.699C666.855 721.348 666.265 720.872 665.835 720.271C665.405 719.662 665.19 719.007 665.19 718.305H668.134C668.162 718.856 668.367 719.279 668.746 719.572C669.126 719.866 669.634 720.013 670.271 720.013C670.866 720.013 671.313 719.902 671.614 719.68C671.922 719.451 672.076 719.153 672.076 718.788Z" fill="black"/>
<path fill-rule="evenodd" clip-rule="evenodd" d="M1107.05 812H447V810H1107.01C1107 810.166 1107 810.333 1107 810.5C1107 811.004 1107.02 811.504 1107.05 812ZM1153.95 812C1153.98 811.504 1154 811.004 1154 810.5C1154 810.333 1154 810.166 1153.99 810H1197V812H1153.95Z" fill="white"/>
<path d="M470 787L446 811L470 835" stroke="white" stroke-width="2"/>
<circle r="19.5" transform="matrix(-1 0 0 1 1130.5 810.5)" stroke="white" stroke-width="2"/>
<path d="M1140 811L1134 817L1122 805" stroke="white" stroke-width="2"/>
<rect width="259" height="86" transform="translate(918 765)" fill="white"/>
<path d="M983.047 809.489V815H979.824V799.359H985.926C987.1 799.359 988.132 799.574 989.02 800.004C989.915 800.434 990.602 801.046 991.082 801.841C991.562 802.629 991.802 803.527 991.802 804.537C991.802 806.07 991.275 807.28 990.223 808.168C989.177 809.049 987.727 809.489 985.872 809.489H983.047ZM983.047 806.879H985.926C986.778 806.879 987.426 806.678 987.87 806.277C988.321 805.876 988.547 805.303 988.547 804.559C988.547 803.792 988.321 803.173 987.87 802.7C987.419 802.228 986.796 801.984 986.001 801.97H983.047V806.879ZM1000.35 806.288C999.93 806.231 999.558 806.202 999.235 806.202C998.061 806.202 997.291 806.6 996.926 807.395V815H993.821V803.377H996.754L996.84 804.763C997.463 803.696 998.326 803.162 999.429 803.162C999.772 803.162 1000.09 803.209 1000.4 803.302L1000.35 806.288ZM1000.99 809.081C1000.99 807.928 1001.21 806.9 1001.65 805.998C1002.1 805.096 1002.73 804.397 1003.56 803.903C1004.4 803.409 1005.37 803.162 1006.48 803.162C1008.04 803.162 1009.32 803.642 1010.31 804.602C1011.31 805.561 1011.86 806.865 1011.98 808.512L1012 809.307C1012 811.09 1011.5 812.522 1010.5 813.604C1009.51 814.678 1008.17 815.215 1006.5 815.215C1004.82 815.215 1003.48 814.678 1002.48 813.604C1001.48 812.529 1000.99 811.068 1000.99 809.221V809.081ZM1004.09 809.307C1004.09 810.41 1004.3 811.255 1004.71 811.842C1005.13 812.422 1005.72 812.712 1006.5 812.712C1007.25 812.712 1007.84 812.425 1008.26 811.853C1008.68 811.272 1008.89 810.349 1008.89 809.081C1008.89 808 1008.68 807.162 1008.26 806.567C1007.84 805.973 1007.24 805.676 1006.48 805.676C1005.72 805.676 1005.13 805.973 1004.71 806.567C1004.3 807.155 1004.09 808.068 1004.09 809.307ZM1017.2 803.377V815.634C1017.2 816.916 1016.86 817.911 1016.18 818.62C1015.5 819.336 1014.51 819.694 1013.23 819.694C1012.7 819.694 1012.18 819.633 1011.7 819.512V817.052C1012.07 817.116 1012.39 817.148 1012.67 817.148C1013.61 817.148 1014.08 816.651 1014.08 815.655V803.377H1017.2ZM1013.83 800.369C1013.83 799.904 1013.99 799.521 1014.3 799.22C1014.61 798.919 1015.04 798.769 1015.57 798.769C1016.11 798.769 1016.53 798.919 1016.84 799.22C1017.16 799.521 1017.31 799.904 1017.31 800.369C1017.31 800.842 1017.15 801.229 1016.83 801.529C1016.52 801.83 1016.1 801.98 1015.57 801.98C1015.05 801.98 1014.63 801.83 1014.31 801.529C1013.99 801.229 1013.83 800.842 1013.83 800.369ZM1024.97 815.215C1023.27 815.215 1021.88 814.692 1020.81 813.646C1019.74 812.601 1019.21 811.208 1019.21 809.468V809.167C1019.21 808 1019.43 806.958 1019.88 806.041C1020.33 805.117 1020.97 804.408 1021.79 803.914C1022.62 803.413 1023.57 803.162 1024.63 803.162C1026.22 803.162 1027.47 803.663 1028.38 804.666C1029.3 805.669 1029.75 807.09 1029.75 808.931V810.198H1022.35C1022.45 810.957 1022.75 811.566 1023.25 812.024C1023.76 812.483 1024.4 812.712 1025.18 812.712C1026.37 812.712 1027.31 812.279 1027.98 811.412L1029.51 813.12C1029.04 813.779 1028.41 814.295 1027.62 814.667C1026.82 815.032 1025.94 815.215 1024.97 815.215ZM1024.62 805.676C1024 805.676 1023.5 805.883 1023.12 806.299C1022.74 806.714 1022.49 807.309 1022.38 808.082H1026.7V807.835C1026.69 807.147 1026.5 806.618 1026.14 806.245C1025.79 805.866 1025.28 805.676 1024.62 805.676ZM1036.36 812.712C1036.93 812.712 1037.4 812.554 1037.76 812.239C1038.11 811.924 1038.3 811.505 1038.32 810.982H1041.23C1041.22 811.77 1041 812.493 1040.58 813.152C1040.16 813.804 1039.58 814.312 1038.84 814.678C1038.11 815.036 1037.3 815.215 1036.41 815.215C1034.75 815.215 1033.44 814.688 1032.48 813.636C1031.52 812.576 1031.04 811.115 1031.04 809.253V809.049C1031.04 807.258 1031.52 805.83 1032.47 804.763C1033.42 803.696 1034.73 803.162 1036.39 803.162C1037.85 803.162 1039.01 803.577 1039.88 804.408C1040.76 805.232 1041.21 806.331 1041.23 807.706H1038.32C1038.3 807.104 1038.11 806.618 1037.76 806.245C1037.4 805.866 1036.93 805.676 1036.34 805.676C1035.62 805.676 1035.07 805.941 1034.7 806.471C1034.33 806.993 1034.15 807.846 1034.15 809.027V809.35C1034.15 810.546 1034.33 811.405 1034.7 811.928C1035.06 812.451 1035.62 812.712 1036.36 812.712ZM1046.72 800.52V803.377H1048.7V805.654H1046.72V811.455C1046.72 811.885 1046.8 812.193 1046.96 812.379C1047.13 812.565 1047.44 812.658 1047.91 812.658C1048.25 812.658 1048.56 812.633 1048.82 812.583V814.936C1048.21 815.122 1047.59 815.215 1046.94 815.215C1044.76 815.215 1043.65 814.116 1043.61 811.917V805.654H1041.91V803.377H1043.61V800.52H1046.72ZM1060.33 799.359L1064.34 810.703L1068.34 799.359H1072.57V815H1069.34V810.725L1069.66 803.345L1065.44 815H1063.23L1059.02 803.355L1059.34 810.725V815H1056.12V799.359H1060.33ZM1074.7 809.081C1074.7 807.928 1074.92 806.9 1075.37 805.998C1075.81 805.096 1076.45 804.397 1077.28 803.903C1078.12 803.409 1079.09 803.162 1080.19 803.162C1081.76 803.162 1083.04 803.642 1084.02 804.602C1085.02 805.561 1085.57 806.865 1085.69 808.512L1085.71 809.307C1085.71 811.09 1085.21 812.522 1084.22 813.604C1083.22 814.678 1081.89 815.215 1080.21 815.215C1078.53 815.215 1077.19 814.678 1076.19 813.604C1075.2 812.529 1074.7 811.068 1074.7 809.221V809.081ZM1077.8 809.307C1077.8 810.41 1078.01 811.255 1078.43 811.842C1078.84 812.422 1079.44 812.712 1080.21 812.712C1080.96 812.712 1081.55 812.425 1081.97 811.853C1082.39 811.272 1082.61 810.349 1082.61 809.081C1082.61 808 1082.39 807.162 1081.97 806.567C1081.55 805.973 1080.95 805.676 1080.19 805.676C1079.43 805.676 1078.84 805.973 1078.43 806.567C1078.01 807.155 1077.8 808.068 1077.8 809.307ZM1087.14 809.103C1087.14 807.291 1087.54 805.848 1088.35 804.773C1089.17 803.699 1090.28 803.162 1091.69 803.162C1092.82 803.162 1093.76 803.585 1094.5 804.43V798.5H1097.61V815H1094.81L1094.66 813.765C1093.88 814.731 1092.89 815.215 1091.67 815.215C1090.3 815.215 1089.2 814.678 1088.37 813.604C1087.55 812.522 1087.14 811.022 1087.14 809.103ZM1090.24 809.328C1090.24 810.417 1090.43 811.251 1090.81 811.831C1091.19 812.411 1091.74 812.701 1092.47 812.701C1093.43 812.701 1094.1 812.297 1094.5 811.487V806.9C1094.11 806.091 1093.44 805.687 1092.49 805.687C1090.99 805.687 1090.24 806.9 1090.24 809.328ZM1105.37 815.215C1103.66 815.215 1102.27 814.692 1101.2 813.646C1100.13 812.601 1099.6 811.208 1099.6 809.468V809.167C1099.6 808 1099.83 806.958 1100.28 806.041C1100.73 805.117 1101.36 804.408 1102.19 803.914C1103.02 803.413 1103.96 803.162 1105.02 803.162C1106.61 803.162 1107.86 803.663 1108.77 804.666C1109.69 805.669 1110.15 807.09 1110.15 808.931V810.198H1102.75C1102.85 810.957 1103.15 811.566 1103.65 812.024C1104.16 812.483 1104.8 812.712 1105.57 812.712C1106.77 812.712 1107.7 812.279 1108.38 811.412L1109.9 813.12C1109.44 813.779 1108.81 814.295 1108.01 814.667C1107.22 815.032 1106.33 815.215 1105.37 815.215ZM1105.01 805.676C1104.4 805.676 1103.9 805.883 1103.51 806.299C1103.13 806.714 1102.89 807.309 1102.78 808.082H1107.1V807.835C1107.08 807.147 1106.9 806.618 1106.54 806.245C1106.18 805.866 1105.67 805.676 1105.01 805.676ZM1115.2 815H1112.08V798.5H1115.2V815Z" fill="black"/>
<path d="M757.889 122.162H739.988V141H734.363V98.3438H760.789V102.973H739.988V117.562H757.889V122.162ZM781.238 114.164C780.418 114.027 779.529 113.959 778.572 113.959C775.018 113.959 772.605 115.473 771.336 118.5V141H765.916V109.301H771.189L771.277 112.963C773.055 110.131 775.574 108.715 778.836 108.715C779.891 108.715 780.691 108.852 781.238 109.125V114.164ZM784.227 124.857C784.227 121.752 784.832 118.959 786.043 116.479C787.273 113.998 788.973 112.084 791.141 110.736C793.328 109.389 795.818 108.715 798.611 108.715C802.928 108.715 806.414 110.209 809.07 113.197C811.746 116.186 813.084 120.16 813.084 125.121V125.502C813.084 128.588 812.488 131.361 811.297 133.822C810.125 136.264 808.436 138.168 806.229 139.535C804.041 140.902 801.521 141.586 798.67 141.586C794.373 141.586 790.887 140.092 788.211 137.104C785.555 134.115 784.227 130.16 784.227 125.238V124.857ZM789.676 125.502C789.676 129.018 790.486 131.84 792.107 133.969C793.748 136.098 795.936 137.162 798.67 137.162C801.424 137.162 803.611 136.088 805.232 133.939C806.854 131.771 807.664 128.744 807.664 124.857C807.664 121.381 806.834 118.568 805.174 116.42C803.533 114.252 801.346 113.168 798.611 113.168C795.936 113.168 793.777 114.232 792.137 116.361C790.496 118.49 789.676 121.537 789.676 125.502ZM825.008 109.301L825.184 113.285C827.605 110.238 830.77 108.715 834.676 108.715C841.375 108.715 844.754 112.494 844.812 120.053V141H839.393V120.023C839.373 117.738 838.846 116.049 837.811 114.955C836.795 113.861 835.203 113.314 833.035 113.314C831.277 113.314 829.734 113.783 828.406 114.721C827.078 115.658 826.043 116.889 825.301 118.412V141H819.881V109.301H825.008ZM860.34 101.625V109.301H866.258V113.49H860.34V133.148C860.34 134.418 860.604 135.375 861.131 136.02C861.658 136.645 862.557 136.957 863.826 136.957C864.451 136.957 865.311 136.84 866.404 136.605V141C864.979 141.391 863.592 141.586 862.244 141.586C859.822 141.586 857.996 140.854 856.766 139.389C855.535 137.924 854.92 135.844 854.92 133.148V113.49H849.148V109.301H854.92V101.625H860.34ZM897.576 121.283H879.09V136.4H900.564V141H873.465V98.3438H900.271V102.973H879.09V116.684H897.576V121.283ZM911.844 109.301L912.02 113.285C914.441 110.238 917.605 108.715 921.512 108.715C928.211 108.715 931.59 112.494 931.648 120.053V141H926.229V120.023C926.209 117.738 925.682 116.049 924.646 114.955C923.631 113.861 922.039 113.314 919.871 113.314C918.113 113.314 916.57 113.783 915.242 114.721C913.914 115.658 912.879 116.889 912.137 118.412V141H906.717V109.301H911.844ZM938.504 124.887C938.504 120.023 939.656 116.117 941.961 113.168C944.266 110.199 947.283 108.715 951.014 108.715C954.725 108.715 957.664 109.984 959.832 112.523V96H965.252V141H960.271L960.008 137.602C957.84 140.258 954.822 141.586 950.955 141.586C947.283 141.586 944.285 140.082 941.961 137.074C939.656 134.066 938.504 130.141 938.504 125.297V124.887ZM943.924 125.502C943.924 129.096 944.666 131.908 946.15 133.939C947.635 135.971 949.686 136.986 952.303 136.986C955.74 136.986 958.25 135.443 959.832 132.357V117.797C958.211 114.809 955.721 113.314 952.361 113.314C949.705 113.314 947.635 114.34 946.15 116.391C944.666 118.441 943.924 121.479 943.924 125.502Z" fill="white"/>
<rect width="61" height="27" transform="translate(500 658)" fill="black"/>
<path d="M513.25 672.547V677H511.75V665.625H515.945C517.19 665.625 518.164 665.943 518.867 666.578C519.576 667.214 519.93 668.055 519.93 669.102C519.93 670.206 519.583 671.057 518.891 671.656C518.203 672.25 517.216 672.547 515.93 672.547H513.25ZM513.25 671.32H515.945C516.747 671.32 517.362 671.133 517.789 670.758C518.216 670.378 518.43 669.831 518.43 669.117C518.43 668.44 518.216 667.898 517.789 667.492C517.362 667.086 516.776 666.875 516.031 666.859H513.25V671.32ZM530.594 671.68C530.594 672.794 530.406 673.768 530.031 674.602C529.656 675.43 529.125 676.062 528.438 676.5C527.75 676.938 526.948 677.156 526.031 677.156C525.135 677.156 524.341 676.938 523.648 676.5C522.956 676.057 522.417 675.43 522.031 674.617C521.651 673.799 521.456 672.854 521.445 671.781V670.961C521.445 669.867 521.635 668.901 522.016 668.062C522.396 667.224 522.932 666.583 523.625 666.141C524.323 665.693 525.12 665.469 526.016 665.469C526.927 665.469 527.729 665.69 528.422 666.133C529.12 666.57 529.656 667.208 530.031 668.047C530.406 668.88 530.594 669.852 530.594 670.961V671.68ZM529.102 670.945C529.102 669.596 528.831 668.562 528.289 667.844C527.747 667.12 526.99 666.758 526.016 666.758C525.068 666.758 524.32 667.12 523.773 667.844C523.232 668.562 522.953 669.562 522.938 670.844V671.68C522.938 672.987 523.211 674.016 523.758 674.766C524.31 675.51 525.068 675.883 526.031 675.883C527 675.883 527.75 675.531 528.281 674.828C528.812 674.12 529.086 673.107 529.102 671.789V670.945ZM536.195 671.93C534.909 671.56 533.971 671.107 533.383 670.57C532.799 670.029 532.508 669.362 532.508 668.57C532.508 667.674 532.865 666.935 533.578 666.352C534.297 665.763 535.229 665.469 536.375 665.469C537.156 665.469 537.852 665.62 538.461 665.922C539.076 666.224 539.549 666.641 539.883 667.172C540.221 667.703 540.391 668.284 540.391 668.914H538.883C538.883 668.227 538.664 667.688 538.227 667.297C537.789 666.901 537.172 666.703 536.375 666.703C535.635 666.703 535.057 666.867 534.641 667.195C534.229 667.518 534.023 667.969 534.023 668.547C534.023 669.01 534.219 669.404 534.609 669.727C535.005 670.044 535.674 670.336 536.617 670.602C537.565 670.867 538.305 671.161 538.836 671.484C539.372 671.802 539.768 672.174 540.023 672.602C540.284 673.029 540.414 673.531 540.414 674.109C540.414 675.031 540.055 675.771 539.336 676.328C538.617 676.88 537.656 677.156 536.453 677.156C535.672 677.156 534.943 677.008 534.266 676.711C533.589 676.409 533.065 675.997 532.695 675.477C532.331 674.956 532.148 674.365 532.148 673.703H533.656C533.656 674.391 533.909 674.935 534.414 675.336C534.924 675.732 535.604 675.93 536.453 675.93C537.245 675.93 537.852 675.768 538.273 675.445C538.695 675.122 538.906 674.682 538.906 674.125C538.906 673.568 538.711 673.138 538.32 672.836C537.93 672.529 537.221 672.227 536.195 671.93ZM550.203 666.859H546.547V677H545.055V666.859H541.406V665.625H550.203V666.859Z" fill="white"/>
<rect width="61" height="27" transform="translate(500 279)" fill="black"/>
<path d="M513.25 293.547V298H511.75V286.625H515.945C517.19 286.625 518.164 286.943 518.867 287.578C519.576 288.214 519.93 289.055 519.93 290.102C519.93 291.206 519.583 292.057 518.891 292.656C518.203 293.25 517.216 293.547 515.93 293.547H513.25ZM513.25 292.32H515.945C516.747 292.32 517.362 292.133 517.789 291.758C518.216 291.378 518.43 290.831 518.43 290.117C518.43 289.44 518.216 288.898 517.789 288.492C517.362 288.086 516.776 287.875 516.031 287.859H513.25V292.32ZM530.594 292.68C530.594 293.794 530.406 294.768 530.031 295.602C529.656 296.43 529.125 297.062 528.438 297.5C527.75 297.938 526.948 298.156 526.031 298.156C525.135 298.156 524.341 297.938 523.648 297.5C522.956 297.057 522.417 296.43 522.031 295.617C521.651 294.799 521.456 293.854 521.445 292.781V291.961C521.445 290.867 521.635 289.901 522.016 289.062C522.396 288.224 522.932 287.583 523.625 287.141C524.323 286.693 525.12 286.469 526.016 286.469C526.927 286.469 527.729 286.69 528.422 287.133C529.12 287.57 529.656 288.208 530.031 289.047C530.406 289.88 530.594 290.852 530.594 291.961V292.68ZM529.102 291.945C529.102 290.596 528.831 289.562 528.289 288.844C527.747 288.12 526.99 287.758 526.016 287.758C525.068 287.758 524.32 288.12 523.773 288.844C523.232 289.562 522.953 290.562 522.938 291.844V292.68C522.938 293.987 523.211 295.016 523.758 295.766C524.31 296.51 525.068 296.883 526.031 296.883C527 296.883 527.75 296.531 528.281 295.828C528.812 295.12 529.086 294.107 529.102 292.789V291.945ZM536.195 292.93C534.909 292.56 533.971 292.107 533.383 291.57C532.799 291.029 532.508 290.362 532.508 289.57C532.508 288.674 532.865 287.935 533.578 287.352C534.297 286.763 535.229 286.469 536.375 286.469C537.156 286.469 537.852 286.62 538.461 286.922C539.076 287.224 539.549 287.641 539.883 288.172C540.221 288.703 540.391 289.284 540.391 289.914H538.883C538.883 289.227 538.664 288.688 538.227 288.297C537.789 287.901 537.172 287.703 536.375 287.703C535.635 287.703 535.057 287.867 534.641 288.195C534.229 288.518 534.023 288.969 534.023 289.547C534.023 290.01 534.219 290.404 534.609 290.727C535.005 291.044 535.674 291.336 536.617 291.602C537.565 291.867 538.305 292.161 538.836 292.484C539.372 292.802 539.768 293.174 540.023 293.602C540.284 294.029 540.414 294.531 540.414 295.109C540.414 296.031 540.055 296.771 539.336 297.328C538.617 297.88 537.656 298.156 536.453 298.156C535.672 298.156 534.943 298.008 534.266 297.711C533.589 297.409 533.065 296.997 532.695 296.477C532.331 295.956 532.148 295.365 532.148 294.703H533.656C533.656 295.391 533.909 295.935 534.414 296.336C534.924 296.732 535.604 296.93 536.453 296.93C537.245 296.93 537.852 296.768 538.273 296.445C538.695 296.122 538.906 295.682 538.906 295.125C538.906 294.568 538.711 294.138 538.32 293.836C537.93 293.529 537.221 293.227 536.195 292.93ZM550.203 287.859H546.547V298H545.055V287.859H541.406V286.625H550.203V287.859Z" fill="white"/>
</svg>
